<?xml version="1.0" standalone="no"?>
<!DOCTYPE svg PUBLIC "-//W3C//DTD SVG 20010904//EN"
 "http://www.w3.org/TR/2001/REC-SVG-20010904/DTD/svg10.dtd">
<svg version="1.0" xmlns="http://www.w3.org/2000/svg"
 width="1955.000000pt" height="2004.000000pt" viewBox="0 0 1955.000000 2004.000000"
 preserveAspectRatio="xMidYMid meet">

<g transform="translate(0.000000,2004.000000) scale(0.100000,-0.100000)"
fill="#000000" stroke="none">
<path d="M0 10020 l0 -10020 9775 0 9775 0 0 10020 0 10020 -9775 0 -9775 0 0
-10020z m19235 0 l0 -9705 -9460 0 -9460 0 -3 9695 c-1 5332 0 9701 3 9708 3
10 1901 12 9462 10 l9458 -3 0 -9705z"/>
<path d="M5755 15250 c-2189 -1578 -3992 -2880 -4006 -2892 l-27 -23 98 -250
c54 -137 996 -2565 2093 -5395 1097 -2830 2001 -5159 2008 -5177 l14 -32 210
90 c1453 626 2291 872 3229 949 161 14 618 13 797 0 967 -74 2028 -384 3323
-969 87 -40 162 -69 166 -64 4 4 48 114 98 243 50 129 996 2566 2101 5414
1106 2849 2010 5180 2008 5181 -44 34 -8126 5795 -8128 5794 -2 0 -1795 -1291
-3984 -2869z m4580 1321 c462 -72 864 -219 1200 -438 138 -90 213 -150 334
-268 251 -243 390 -471 481 -785 l27 -94 124 -22 c281 -49 493 -127 666 -246
110 -76 110 -76 -11 -76 -147 -1 -406 -40 -406 -61 0 -4 33 -30 72 -57 91 -61
231 -199 287 -282 43 -64 91 -158 91 -179 0 -7 -55 17 -122 52 -319 164 -585
225 -1123 255 -429 24 -538 57 -663 202 -53 62 -76 123 -70 191 9 108 87 211
199 265 l61 29 -47 59 c-185 231 -433 422 -688 528 -267 112 -520 156 -897
156 -369 1 -637 -38 -908 -132 -230 -79 -424 -193 -579 -341 -80 -77 -223
-248 -223 -268 0 -4 20 -14 45 -23 136 -52 236 -228 205 -363 -9 -44 -23 -66
-71 -117 -123 -132 -234 -164 -654 -186 -533 -29 -834 -100 -1152 -271 -51
-28 -93 -48 -93 -44 0 21 74 160 113 211 62 81 207 219 285 269 33 22 61 43
62 47 1 21 -265 59 -418 59 l-106 0 29 24 c189 157 515 285 790 311 l70 7 41
126 c256 787 1045 1346 2084 1476 86 10 205 13 470 11 304 -3 375 -7 495 -25z
m-471 -1433 l72 -233 243 -5 244 -5 -196 -147 -196 -147 14 -48 c8 -27 42
-133 74 -238 33 -104 58 -191 56 -193 -2 -2 -89 62 -194 142 -105 80 -193 146
-195 146 -3 0 -91 -66 -196 -146 -105 -80 -193 -144 -195 -142 -3 3 82 280
139 455 6 20 -15 38 -190 170 l-197 148 244 5 244 5 46 150 c26 83 59 190 74
238 14 49 29 87 32 84 2 -3 37 -110 77 -239z m-29 -1163 c17 -17 25 -35 25
-60 0 -32 3 -36 20 -30 19 6 20 2 20 -69 l0 -76 -40 0 -40 0 0 -50 0 -50 75 0
c73 0 75 -1 108 -37 29 -31 40 -36 81 -37 41 -1 51 3 70 27 20 25 28 27 89 27
l67 0 0 -60 c0 -37 -4 -60 -11 -60 -6 0 -43 -31 -83 -69 -39 -38 -81 -72 -93
-75 -19 -6 -23 -15 -23 -47 0 -32 -3 -39 -20 -39 -18 0 -20 -7 -20 -84 0 -80
-1 -85 -22 -88 -21 -3 -24 -10 -29 -73 -3 -38 -6 -55 -7 -37 -1 19 -7 32 -16
32 -7 0 -37 19 -66 42 -47 37 -60 43 -115 46 -60 4 -63 3 -108 -36 -26 -22
-56 -43 -67 -47 -11 -3 -20 -14 -20 -24 0 -18 -18 -41 -32 -41 -4 0 -8 32 -8
70 0 63 -2 70 -20 70 -18 0 -20 7 -20 85 0 78 -2 85 -20 85 -17 0 -20 7 -20
39 0 36 -3 40 -33 50 -19 7 -54 36 -85 70 -29 33 -61 63 -72 66 -17 5 -20 15
-20 66 l0 59 69 0 c62 0 70 -2 85 -24 8 -14 24 -27 35 -31 34 -11 99 13 123
45 21 29 25 30 100 30 l78 0 0 50 0 50 -45 0 -46 0 3 73 c3 64 5 72 23 72 15
0 21 9 26 39 6 38 39 75 67 76 7 0 24 -11 37 -25z m1960 -175 c7 -6 15 -31 19
-57 3 -26 20 -70 36 -100 35 -62 35 -63 11 -56 -32 8 -99 -16 -121 -45 -32
-40 -22 -87 30 -133 l40 -37 -55 -26 c-30 -15 -68 -44 -85 -67 -25 -30 -39
-39 -63 -39 -32 0 -77 33 -77 57 0 7 -4 13 -9 13 -16 0 -20 44 -6 66 12 19 11
23 -11 34 -13 8 -27 25 -30 39 -3 14 -9 35 -14 46 -22 51 -21 94 2 130 13 19
33 38 45 41 12 3 29 14 39 25 9 10 27 19 39 19 17 0 25 9 33 39 12 38 29 51
87 65 26 6 75 -2 90 -14z m-3665 -10 c0 -16 -69 -150 -103 -200 -17 -25 -48
-63 -69 -86 l-37 -40 99 22 c110 25 129 36 240 138 94 87 142 109 235 109 66
0 152 -24 195 -53 33 -23 -194 -203 -318 -251 -46 -19 -80 -24 -177 -25 -66
-2 -145 -9 -175 -16 l-55 -14 60 -22 c33 -13 88 -42 121 -65 65 -44 194 -156
194 -168 0 -13 -106 -50 -160 -56 -98 -10 -150 13 -263 117 -54 49 -114 99
-132 110 l-34 21 -71 -22 c-76 -25 -89 -39 -37 -39 46 0 138 -33 201 -71 59
-36 186 -138 186 -149 0 -4 -28 -20 -62 -36 -50 -23 -77 -29 -133 -29 -82 1
-112 14 -197 87 -65 56 -186 138 -204 138 -6 0 -48 -17 -93 -38 l-82 -39 69
-1 c50 -1 93 -10 153 -32 84 -31 249 -125 256 -146 5 -16 -48 -52 -116 -80
-105 -44 -184 -30 -308 54 -66 45 -141 84 -194 101 -34 11 -41 9 -103 -27
l-68 -39 49 4 c96 9 236 -34 381 -118 l64 -36 -39 -32 c-65 -54 -120 -75 -203
-79 -72 -3 -78 -2 -150 38 -118 64 -202 102 -240 107 -28 4 -45 -2 -85 -31
l-50 -36 84 0 c91 0 207 -32 318 -89 100 -51 101 -51 53 -89 -66 -54 -146 -86
-215 -86 -54 -1 -72 5 -185 61 -69 34 -144 67 -167 74 -42 12 -43 11 -98 -31
-30 -23 -55 -43 -55 -44 0 -1 42 -2 93 -2 67 0 112 -6 166 -23 83 -25 211 -80
211 -90 0 -10 -70 -75 -102 -94 -16 -10 -54 -24 -87 -32 -68 -18 -122 -10
-201 30 -58 29 -191 75 -217 75 -10 -1 -43 -24 -73 -52 -30 -29 -47 -49 -37
-45 50 19 148 26 222 17 105 -13 275 -60 275 -75 0 -23 -105 -121 -155 -145
-77 -38 -150 -38 -269 -1 -54 17 -128 36 -164 42 l-66 10 -45 -47 c-39 -38
-42 -45 -21 -39 52 16 149 22 227 14 92 -10 220 -37 227 -48 8 -12 -82 -119
-123 -147 -44 -28 -118 -54 -165 -55 -19 -1 -4 -6 39 -15 101 -20 98 -18 79
-55 -27 -53 -103 -127 -158 -154 -76 -37 -117 -39 -241 -16 -60 12 -141 24
-180 27 l-70 6 -32 -51 c-18 -28 -33 -52 -33 -54 0 -2 30 7 67 19 37 13 100
26 140 30 66 6 255 -8 309 -22 l22 -6 -24 -43 c-42 -74 -101 -132 -170 -166
-70 -35 -90 -36 -319 -10 -132 15 -141 11 -194 -88 l-43 -83 52 38 c106 76
295 116 467 98 l83 -9 -25 -52 c-31 -68 -106 -148 -170 -181 -49 -25 -55 -26
-252 -26 -166 -1 -205 -4 -217 -16 -11 -11 -96 -212 -96 -227 0 -1 21 20 46
47 109 116 226 158 487 175 90 6 97 6 97 -12 0 -36 -60 -143 -105 -188 -73
-74 -115 -87 -295 -96 -85 -5 -180 -14 -210 -21 -54 -13 -54 -13 -71 -68 -9
-30 -20 -69 -23 -86 l-7 -31 51 49 c97 94 241 143 452 155 126 7 124 10 75
-92 -43 -90 -125 -168 -199 -190 -29 -8 -90 -15 -139 -15 -72 0 -256 -23 -266
-34 -3 -3 -32 -201 -33 -220 0 -5 16 11 35 36 89 114 267 189 490 204 l94 7
-6 -24 c-14 -57 -64 -151 -103 -193 -64 -69 -123 -93 -260 -105 -63 -6 -147
-18 -186 -27 l-71 -17 -7 -66 c-3 -36 -6 -84 -6 -105 l0 -39 35 46 c72 95 200
168 369 211 117 31 136 32 136 9 0 -31 -26 -116 -48 -159 -53 -104 -109 -141
-277 -182 -67 -16 -144 -40 -173 -52 l-52 -22 0 -95 0 -95 42 62 c45 67 120
132 209 180 53 28 253 100 279 100 9 0 10 -15 5 -57 -15 -121 -78 -231 -158
-277 -23 -13 -94 -40 -157 -60 -135 -42 -215 -83 -214 -109 0 -9 2 -56 3 -104
l1 -88 20 44 c64 141 204 249 423 326 43 15 80 25 84 21 11 -10 -16 -155 -37
-204 -47 -105 -83 -132 -278 -207 -51 -20 -117 -50 -147 -68 l-55 -31 5 -51
c3 -27 8 -69 11 -93 l5 -43 26 53 c43 86 159 193 278 255 55 28 117 58 139 67
l38 16 -4 -93 c-8 -165 -69 -250 -235 -321 -92 -40 -193 -97 -212 -119 -8 -10
-8 -35 1 -95 6 -45 14 -82 17 -82 3 0 17 26 31 57 47 109 184 230 358 317 86
43 86 43 80 -78 -4 -69 -10 -96 -36 -149 -40 -81 -78 -115 -195 -173 -114 -57
-207 -122 -207 -143 0 -36 34 -181 40 -174 4 4 15 32 25 60 41 127 190 270
382 367 l52 26 6 -54 c10 -78 -2 -152 -36 -223 -36 -74 -64 -99 -202 -177 -58
-33 -126 -78 -152 -101 l-47 -40 28 -103 c16 -56 32 -102 35 -102 3 0 9 21 13
46 10 79 63 172 146 255 68 68 232 189 257 189 26 0 31 -159 8 -237 -24 -81
-64 -126 -187 -207 -62 -41 -133 -95 -158 -120 l-44 -46 33 -103 c37 -111 39
-111 60 -6 24 118 145 267 305 378 59 41 80 51 89 42 8 -8 12 -52 12 -124 0
-96 -3 -119 -23 -162 -29 -64 -49 -85 -147 -153 -101 -70 -179 -136 -199 -167
-15 -23 -14 -30 20 -114 37 -90 54 -106 54 -51 0 77 74 214 165 305 56 56 209
175 225 175 14 0 33 -131 27 -189 -12 -113 -51 -174 -165 -257 -103 -76 -180
-142 -198 -169 -14 -22 -12 -29 32 -117 l48 -93 7 54 c14 109 70 212 173 319
65 69 177 162 194 162 15 0 36 -98 35 -171 0 -76 -25 -157 -60 -200 -14 -16
-69 -66 -123 -110 -54 -44 -114 -99 -134 -123 l-35 -43 52 -92 52 -91 12 77
c21 138 128 307 272 432 l61 53 15 -36 c42 -99 44 -226 5 -313 -13 -31 -50
-74 -111 -132 -50 -47 -111 -112 -135 -143 l-45 -57 58 -87 58 -87 7 79 c7 90
32 164 83 249 46 76 126 183 164 219 l31 29 32 -69 c30 -63 33 -77 33 -164 0
-114 -15 -150 -106 -255 -61 -71 -135 -172 -145 -200 -5 -13 93 -156 118 -171
5 -3 6 25 2 63 -8 90 15 193 65 297 43 89 141 239 156 240 6 1 28 -34 50 -77
34 -67 40 -91 44 -154 5 -100 -7 -134 -86 -249 -36 -53 -81 -128 -99 -166 -39
-78 -41 -70 36 -155 l45 -50 -3 88 c-2 47 1 111 7 140 16 77 68 201 125 298
l49 83 23 -29 c13 -15 39 -57 56 -93 31 -60 33 -72 33 -165 l0 -100 -61 -105
c-33 -58 -73 -134 -88 -169 l-27 -65 86 -85 85 -86 -20 59 c-52 146 -32 298
67 534 20 45 39 82 44 82 15 0 91 -103 118 -160 21 -45 26 -70 26 -135 0 -75
-4 -88 -52 -200 -29 -66 -60 -153 -70 -192 -15 -67 -16 -74 -1 -85 9 -7 48
-39 86 -70 38 -32 71 -58 74 -58 3 0 -5 22 -18 48 -65 135 -59 315 16 531 17
47 34 89 38 93 14 14 112 -100 140 -161 40 -88 41 -167 2 -276 -39 -109 -65
-204 -73 -267 l-6 -46 102 -70 c135 -91 131 -90 98 -40 -56 83 -74 143 -79
269 -3 85 0 139 13 200 22 110 48 199 58 199 5 0 28 -16 52 -35 93 -77 154
-208 141 -309 -3 -28 -17 -89 -31 -136 -36 -119 -53 -266 -34 -284 23 -23 230
-129 236 -122 4 3 -5 19 -19 34 -110 118 -148 302 -113 547 9 66 19 121 20
123 9 10 78 -39 131 -92 101 -101 120 -183 89 -370 -9 -53 -15 -132 -13 -190
l3 -98 50 -19 c28 -10 232 -73 455 -139 941 -281 1235 -399 1446 -579 55 -48
139 -149 149 -181 3 -10 17 -21 31 -24 33 -9 425 11 594 29 551 61 1082 200
1795 472 l250 95 82 -4 c114 -6 192 -45 293 -147 120 -120 183 -262 182 -410
-1 -148 -52 -229 -218 -347 -343 -243 -440 -485 -302 -758 16 -32 27 -60 24
-63 -7 -8 -142 35 -215 68 -164 75 -355 237 -419 356 l-32 61 -48 -18 c-86
-33 -342 -100 -517 -135 -1070 -215 -2512 -164 -3400 122 l-90 29 -24 -47
c-63 -126 -211 -256 -396 -349 -101 -51 -231 -97 -241 -87 -2 2 12 40 32 85
69 160 69 268 -1 408 -54 111 -214 270 -367 367 -50 31 -101 92 -132 157 -28
59 -31 73 -30 160 1 76 6 109 26 162 58 155 167 282 296 346 71 34 82 37 166
37 91 0 91 0 361 -102 694 -261 1214 -402 1690 -458 160 -19 505 -32 505 -19
0 17 -82 104 -138 148 -204 156 -479 263 -1355 525 -257 78 -511 158 -562 180
l-95 38 -97 -33 c-221 -75 -382 -84 -503 -28 -36 17 -87 49 -113 73 l-49 41
34 14 c99 42 202 60 344 60 113 1 138 3 125 13 -23 18 -88 16 -262 -8 -199
-27 -294 -23 -369 15 -50 26 -160 126 -160 146 0 4 42 19 93 31 73 18 122 23
239 23 80 1 144 5 141 10 -3 5 -117 5 -257 1 -241 -7 -253 -6 -308 14 -68 26
-123 68 -177 137 -47 60 -49 57 69 75 82 12 320 8 370 -7 24 -6 24 -6 7 12
-16 17 -40 19 -270 24 -249 5 -253 5 -302 31 -73 39 -191 168 -167 183 5 3 57
10 117 16 117 12 146 20 74 20 -78 1 -197 27 -249 56 -61 33 -123 99 -163 172
l-28 52 103 1 103 1 -88 19 c-106 22 -196 68 -244 123 -35 41 -93 145 -93 167
0 9 25 10 93 6 l92 -6 -55 15 c-144 39 -221 100 -276 220 -19 40 -34 76 -34
79 0 4 12 4 28 1 15 -2 54 -7 87 -10 l60 -6 -67 24 c-128 45 -204 121 -253
250 l-25 66 33 0 c91 0 262 -58 440 -148 4 -2 4 3 1 11 -6 16 -65 42 -263 117
-165 62 -222 92 -268 143 -42 47 -90 145 -99 206 -6 39 -5 43 12 38 19 -6 90
-24 129 -33 11 -2 -11 11 -48 31 -86 45 -142 101 -177 178 -27 57 -50 157 -37
157 24 0 186 -60 247 -91 93 -47 120 -65 176 -119 48 -46 51 -46 30 5 -13 31
-33 43 -200 125 -201 99 -256 140 -299 219 -25 46 -64 188 -54 198 6 6 145
-46 210 -78 90 -46 67 -27 -40 32 -125 70 -183 122 -216 196 -23 51 -51 200
-41 212 6 7 141 -60 208 -103 85 -54 152 -112 198 -170 35 -44 38 -46 32 -20
-15 60 -24 71 -123 134 -313 199 -342 233 -358 413 l-6 69 84 -42 c135 -68
244 -149 301 -225 17 -22 28 -32 24 -22 -3 10 -6 25 -6 32 0 8 -78 72 -173
143 -95 71 -185 144 -201 163 -50 59 -69 115 -74 217 l-4 94 43 -23 c119 -60
253 -167 316 -253 41 -56 54 -57 33 -2 -5 14 -72 75 -153 140 -79 63 -158 131
-177 152 -55 63 -82 135 -88 234 -3 50 -1 90 5 93 13 8 143 -76 224 -146 37
-31 88 -84 113 -118 35 -46 46 -56 46 -39 0 23 -69 95 -237 248 -138 125 -158
165 -158 314 0 58 3 110 7 114 18 17 193 -133 266 -229 23 -30 55 -78 72 -108
l30 -54 0 44 c0 44 -2 47 -150 197 -189 191 -205 221 -205 371 0 56 4 105 7
109 11 10 121 -80 201 -166 41 -44 90 -109 108 -143 31 -57 34 -60 37 -34 4
35 -1 43 -139 202 -135 157 -170 223 -172 322 -1 68 19 173 32 173 11 0 183
-179 211 -219 12 -18 36 -56 51 -85 28 -50 29 -50 29 -19 0 24 -26 70 -102
185 -56 84 -110 176 -121 203 -25 64 -26 163 -2 235 23 72 30 78 55 49 65 -75
133 -173 168 -242 27 -52 42 -72 46 -61 7 17 -13 59 -90 191 -115 195 -127
254 -79 394 32 94 39 101 70 64 39 -49 107 -172 141 -259 32 -78 33 -79 44
-52 9 25 2 44 -72 189 l-83 162 0 95 c1 82 4 103 27 153 15 31 29 57 32 57 3
0 24 -27 46 -60 51 -74 117 -211 135 -277 12 -46 13 -47 23 -23 7 20 4 39 -15
90 -91 237 -104 283 -100 354 4 55 12 84 43 144 22 42 44 77 51 80 24 7 117
-210 143 -333 l13 -60 15 33 c15 31 14 38 -34 190 -41 131 -49 169 -49 232 1
64 5 84 32 135 17 33 45 76 61 95 l30 35 22 -50 c34 -78 69 -209 76 -283 8
-86 16 -101 34 -67 13 23 11 46 -14 195 -34 198 -32 269 8 345 27 52 102 143
110 134 17 -17 58 -220 64 -316 l7 -113 23 33 22 33 -20 193 c-19 177 -20 196
-6 252 9 33 29 79 45 102 36 52 99 113 107 104 30 -29 57 -355 36 -431 l-11
-39 24 23 c24 23 25 27 25 179 1 259 18 334 95 420 40 44 113 97 121 88 4 -3
9 -66 11 -139 5 -118 -5 -238 -23 -295 -4 -12 5 -7 24 14 26 27 31 41 36 105
27 338 31 355 91 426 23 28 95 82 154 117 21 12 8 -246 -17 -347 -17 -71 -18
-76 -2 -68 36 19 41 34 95 299 29 139 59 206 117 255 35 31 146 91 153 84 2
-2 -1 -41 -6 -88 -12 -107 -41 -226 -73 -297 l-25 -54 44 32 c25 18 45 34 45
35 0 18 107 369 121 396 33 64 81 110 154 145 92 44 97 43 89 -9 -13 -92 -56
-237 -93 -311 l-39 -78 31 20 c23 14 39 40 64 103 123 304 137 328 216 382 51
34 171 76 183 63 12 -12 -57 -210 -101 -294 -24 -46 -41 -83 -37 -83 27 0 57
47 112 172 77 174 107 219 168 255 45 27 180 68 190 58 15 -14 -73 -216 -132
-303 -24 -36 -30 -52 -20 -52 22 0 45 28 129 161 104 165 125 190 184 222 70
38 201 62 201 37z m943 -497 c14 -16 40 -59 57 -98 87 -192 98 -211 173 -282
46 -44 92 -77 121 -88 37 -14 46 -22 46 -41 0 -24 2 -24 95 -24 l95 0 0 34 c0
33 -21 66 -41 66 -16 0 -10 26 10 44 11 10 23 31 26 46 4 16 26 45 55 69 39
33 56 41 87 41 21 -1 47 -6 59 -13 44 -26 94 -73 94 -88 0 -9 11 -32 24 -52
l25 -36 -25 -16 c-19 -12 -24 -24 -24 -55 l0 -40 95 0 c92 0 95 1 95 23 0 17
11 27 49 45 58 26 137 95 184 160 19 26 55 96 80 155 49 116 88 177 114 177 9
0 27 -10 40 -22 21 -20 23 -29 23 -134 0 -104 -2 -113 -20 -119 -16 -5 -20
-15 -20 -51 l0 -44 39 6 c32 5 43 2 61 -16 19 -19 21 -29 16 -74 -7 -50 -6
-53 29 -83 32 -29 36 -37 33 -75 l-3 -43 -95 0 c-93 0 -96 -1 -151 -37 -60
-41 -88 -73 -168 -191 l-52 -78 -27 20 c-50 35 -131 55 -232 55 -89 1 -95 0
-95 -19 0 -18 9 -21 105 -27 169 -13 261 -72 230 -148 -19 -45 -43 -46 -98 -7
-108 79 -203 107 -367 107 -142 0 -221 -20 -354 -86 -108 -55 -114 -57 -127
-39 -20 27 -17 68 6 97 32 42 108 67 222 76 94 6 103 9 103 27 0 17 -8 20 -54
23 -83 5 -189 -15 -248 -47 -60 -33 -56 -36 -118 64 -49 79 -97 129 -169 176
l-60 39 -88 -6 -88 -7 0 49 c0 44 4 52 37 80 36 31 37 32 25 70 -10 33 -9 43
7 69 16 27 22 30 64 28 l47 -1 0 39 c0 30 -5 42 -25 55 -24 16 -25 21 -25 117
0 96 1 102 27 129 33 35 43 35 76 1z m4636 -127 c10 -9 25 -16 34 -16 9 0 26
-13 38 -30 18 -23 26 -27 40 -20 35 19 57 10 98 -39 55 -65 55 -99 2 -134 -21
-14 -54 -49 -72 -77 l-34 -52 -15 24 c-46 71 -99 95 -151 68 -22 -12 -49 -71
-49 -106 0 -30 -11 -30 -36 -3 -24 28 -91 58 -126 59 -31 0 -68 41 -68 75 0
37 51 106 82 112 20 4 28 12 28 26 0 11 26 45 63 79 59 58 64 60 105 55 24 -2
51 -12 61 -21z m-1345 -76 c16 -6 26 -17 26 -30 0 -31 26 -87 60 -130 16 -21
30 -41 30 -44 0 -3 -15 -6 -32 -6 -18 0 -48 -9 -66 -20 -76 -47 -57 -127 44
-186 17 -10 15 -13 -24 -33 -28 -14 -54 -40 -78 -76 -41 -61 -62 -72 -104 -55
-39 16 -84 83 -76 113 4 18 -1 28 -24 46 -17 12 -30 30 -30 40 0 10 -3 21 -7
25 -4 4 -15 27 -25 53 -17 45 -17 45 9 87 14 22 30 43 36 45 5 2 18 14 29 26
11 13 31 26 44 29 18 5 24 13 24 34 1 37 20 59 66 76 49 17 66 18 98 6z
m-1445 -732 c1 -32 6 -58 11 -58 6 0 10 -38 10 -94 l0 -95 28 -3 c23 -3 27 -8
27 -33 0 -27 -4 -30 -32 -33 -32 -3 -33 -5 -33 -48 l0 -44 85 0 c78 0 85 -2
85 -20 0 -15 7 -20 25 -20 24 0 25 -3 25 -61 0 -58 -2 -63 -42 -105 l-43 -44
-97 0 -98 0 0 -39 c0 -31 -4 -41 -20 -46 -29 -9 -50 -56 -50 -110 0 -41 -2
-45 -24 -45 -21 0 -24 -6 -31 -55 -5 -40 -11 -55 -22 -55 -8 0 -31 -16 -50
-35 l-35 -35 -232 0 -232 0 -12 34 c-21 57 -94 130 -160 159 -215 97 -492 24
-582 -153 l-20 -40 -239 0 -239 0 -16 25 c-10 14 -29 31 -44 38 -37 16 -42 25
-42 75 0 38 -2 42 -25 42 -23 0 -25 4 -25 40 0 53 -23 106 -49 115 -17 5 -21
15 -21 46 l0 39 -100 0 c-99 0 -100 0 -122 30 -12 16 -30 32 -40 36 -15 4 -18
16 -18 75 0 67 1 69 25 69 18 0 25 5 25 20 0 18 7 20 85 20 l85 0 0 44 c0 43
-1 45 -32 48 -29 3 -33 6 -33 33 0 25 4 30 28 33 l27 3 0 95 c0 56 4 94 10 94
6 0 10 28 10 64 0 75 13 91 34 42 8 -19 24 -41 35 -48 18 -11 21 -23 21 -84 0
-58 -4 -74 -20 -89 -38 -34 -16 -69 49 -80 47 -8 62 -36 37 -64 -9 -10 -16
-32 -16 -49 l0 -32 85 0 c78 0 85 -2 85 -20 0 -15 7 -20 25 -20 34 0 51 -34
31 -63 -41 -58 -38 -57 -133 -57 -69 0 -94 -4 -103 -15 -23 -27 1 -34 129 -36
114 -3 124 -5 137 -25 19 -28 243 -147 317 -169 51 -15 106 -16 455 -13 436 5
467 9 535 67 17 15 60 43 94 61 34 18 69 43 78 57 10 14 24 23 38 22 12 -1 71
-1 130 -1 106 2 108 2 105 25 -3 21 -8 22 -103 25 l-100 4 -29 34 c-25 30 -27
38 -18 59 8 17 20 25 37 25 18 0 25 5 25 20 0 18 7 20 85 20 l85 0 0 32 c0 17
-7 39 -16 49 -17 19 -11 59 9 59 32 0 86 22 91 37 4 10 -2 28 -14 45 -15 21
-20 42 -20 94 0 58 3 68 24 85 14 11 30 36 37 56 10 33 13 35 20 18 4 -11 8
-46 8 -77z m-964 -79 c126 -23 255 -107 324 -209 l41 -63 -2 -181 -3 -181 -46
-23 c-32 -16 -72 -25 -133 -29 l-86 -6 0 162 c0 183 -3 193 -73 258 -55 51
-101 66 -183 61 -77 -5 -132 -39 -181 -112 l-33 -48 0 -160 0 -160 -102 4
c-85 3 -113 8 -160 30 l-58 27 0 179 0 180 44 60 c24 33 59 71 78 85 56 42
198 108 262 122 75 17 233 19 311 4z m3480 -61 c21 -16 24 -25 20 -56 -5 -32
3 -74 30 -157 6 -19 2 -20 -52 -17 -76 5 -113 -20 -113 -76 0 -37 40 -112 60
-112 6 0 10 -4 10 -9 0 -5 -18 -11 -41 -15 -49 -8 -84 -25 -121 -60 -16 -16
-39 -26 -56 -26 -33 0 -72 32 -72 60 0 10 -4 22 -10 25 -5 3 -10 17 -10 30 0
13 5 27 10 30 12 7 13 45 2 45 -17 0 -29 46 -31 116 l-2 71 41 37 c22 20 45
34 50 31 6 -4 17 1 26 9 8 9 29 16 45 16 22 0 32 6 38 23 16 43 37 54 95 55
41 0 62 -5 81 -20z m1037 -108 c14 -6 33 -26 42 -44 13 -28 20 -32 44 -28 23
3 35 -4 65 -37 56 -63 48 -119 -20 -141 -23 -8 -57 -33 -85 -62 l-46 -50 -20
45 c-20 44 -61 77 -96 77 -27 0 -75 -51 -88 -93 -6 -23 -13 -44 -14 -45 -1 -2
-19 14 -39 37 -20 22 -61 52 -91 66 -49 23 -54 29 -54 58 0 34 34 116 54 129
6 4 25 8 43 8 24 0 36 6 45 23 18 33 77 82 118 99 32 13 38 13 75 -8 22 -13
52 -28 67 -34z m-4555 -111 c19 -12 48 -40 64 -62 l29 -40 0 -154 0 -153 -190
0 -190 0 0 158 0 158 37 44 c69 81 167 100 250 49z m-63 -572 c38 -39 66 -99
66 -141 0 -21 29 -33 40 -17 11 20 -8 100 -35 147 l-25 43 46 -14 c89 -27 159
-97 186 -187 l11 -38 186 -2 186 -3 3 -367 2 -368 26 -6 c17 -4 31 -18 40 -40
13 -31 17 -33 66 -36 49 -3 53 -5 56 -30 l3 -28 -203 0 -203 0 -1 138 c-1 115
-5 146 -23 194 -26 68 -79 120 -150 145 -50 17 -51 18 -62 73 -20 99 -72 170
-153 213 -52 27 -181 29 -237 4 -83 -37 -139 -114 -161 -221 -10 -51 -12 -54
-51 -66 -80 -24 -136 -78 -167 -160 -7 -20 -14 -94 -16 -175 l-3 -140 -201 -3
-200 -2 0 30 c0 28 2 30 40 30 36 0 40 3 40 25 0 14 9 34 20 45 11 11 31 20
45 20 l25 0 0 365 0 365 189 0 190 0 24 53 c33 73 67 109 135 145 83 45 95 43
69 -10 -12 -23 -23 -68 -25 -101 -4 -53 -3 -59 14 -55 13 2 21 18 29 58 14 68
37 112 71 139 39 31 63 26 108 -22z m-1754 -36 c5 -11 10 -38 10 -60 0 -34 3
-41 20 -41 19 0 20 -7 20 -155 l0 -155 25 0 c24 0 25 -2 25 -65 l0 -65 75 0
75 0 0 30 c0 29 2 30 44 30 83 0 133 -84 120 -199 -7 -66 5 -98 55 -145 17
-17 31 -37 31 -46 0 -9 6 -25 14 -35 11 -15 17 -17 28 -7 24 19 9 67 -38 122
-47 55 -47 57 -38 138 l7 52 39 0 c74 0 137 -54 187 -160 29 -60 31 -73 31
-177 l0 -113 -128 0 -128 0 -9 32 c-6 20 -23 41 -42 53 -27 17 -32 26 -33 58
0 30 -4 37 -20 37 -11 0 -20 4 -20 8 0 5 -16 27 -36 51 -28 33 -42 41 -63 39
-36 -4 -41 -35 -7 -44 14 -3 26 -9 26 -13 0 -4 16 -26 35 -48 26 -31 35 -51
35 -77 0 -28 4 -36 18 -36 33 0 62 -30 68 -71 l7 -39 148 0 149 0 0 -25 0 -25
-213 0 -213 0 -41 43 c-51 52 -63 81 -63 158 l0 61 -32 -4 c-32 -3 -33 -2 -36
40 l-3 42 -138 0 -137 0 -34 35 c-18 19 -52 42 -75 51 -37 14 -44 21 -58 68
-10 29 -17 55 -17 59 0 3 21 7 48 9 l47 3 5 50 c5 48 6 50 39 53 59 6 79 -6
121 -69 42 -61 76 -86 104 -76 24 9 19 36 -8 47 -14 5 -41 34 -60 64 -37 57
-77 86 -121 86 -14 0 -25 5 -25 10 0 6 11 10 25 10 l25 0 0 155 0 155 25 0
c23 0 25 3 25 48 0 26 5 53 12 60 18 18 56 14 68 -7z m3460 0 c5 -11 10 -38
10 -60 0 -37 2 -41 25 -41 l25 0 0 -155 0 -155 25 0 c14 0 25 -4 25 -10 0 -5
-12 -10 -27 -10 -43 0 -90 -35 -128 -94 -18 -29 -43 -56 -54 -59 -22 -5 -28
-31 -10 -42 24 -16 60 8 99 65 45 67 64 80 112 80 45 0 58 -15 58 -67 l0 -43
51 0 c45 0 50 -2 44 -17 -3 -10 -12 -37 -18 -61 -9 -35 -17 -44 -39 -49 -15
-3 -50 -25 -78 -49 l-52 -44 -139 0 -139 0 0 -45 c0 -44 0 -44 -30 -38 l-30 6
0 -57 c0 -70 -20 -120 -68 -168 l-36 -38 -213 0 -213 0 0 25 0 25 150 0 150 0
0 30 c0 36 39 80 70 80 16 0 20 6 20 35 0 38 55 120 93 140 27 13 33 33 13 41
-31 12 -65 -7 -96 -51 -17 -25 -37 -45 -45 -45 -11 0 -15 -12 -15 -40 0 -26
-4 -40 -13 -40 -18 0 -63 -49 -72 -77 -6 -22 -10 -23 -131 -23 l-124 0 0 118
c0 103 3 123 25 170 51 110 114 162 195 162 38 0 40 -1 40 -32 0 -18 3 -49 6
-68 5 -31 0 -41 -39 -87 -51 -60 -65 -99 -44 -121 18 -17 37 -8 37 18 0 10 18
40 40 65 59 68 62 78 55 151 -13 117 35 194 121 194 42 0 44 -1 44 -30 l0 -30
75 0 75 0 0 65 c0 58 2 65 20 65 19 0 20 7 20 155 l0 155 25 0 c23 0 25 4 25
44 0 24 3 51 6 60 9 23 61 21 74 -3z m3473 -26 c20 -14 43 -38 51 -54 8 -15
22 -33 30 -40 9 -8 16 -26 16 -42 0 -24 4 -29 24 -29 33 0 76 -37 76 -65 0
-13 4 -35 10 -50 7 -19 6 -35 -4 -59 -12 -30 -20 -34 -73 -45 -33 -6 -81 -25
-107 -41 -26 -17 -49 -30 -51 -30 -3 0 -5 16 -5 35 0 73 -45 135 -99 135 -33
0 -87 -36 -108 -71 -10 -16 -20 -29 -24 -29 -3 0 -11 17 -17 38 -13 43 -73
118 -102 127 -27 9 -37 68 -17 99 9 13 36 35 61 50 37 21 49 24 71 16 23 -9
30 -7 46 14 17 21 74 45 144 59 36 8 40 7 78 -18z m-1049 -25 c12 0 34 -13 49
-28 25 -26 26 -31 16 -61 -7 -19 -10 -66 -7 -112 4 -70 3 -79 -11 -73 -77 31
-129 27 -161 -13 -26 -34 -25 -69 4 -126 l23 -47 -51 0 c-33 0 -70 -9 -104
-25 -66 -31 -84 -31 -117 -2 -35 31 -45 113 -17 147 18 22 18 26 5 47 -13 19
-13 35 -3 108 l12 85 44 26 c25 15 53 24 64 21 11 -3 23 -1 26 5 4 6 24 8 49
5 38 -6 43 -4 53 19 14 30 49 44 80 33 13 -5 33 -9 46 -9z m-4087 -281 c78
-38 133 -133 133 -230 0 -34 2 -37 36 -42 59 -10 124 -47 149 -86 34 -52 48
-142 43 -279 l-4 -119 96 -7 c52 -3 155 -6 228 -6 103 0 133 -3 130 -12 -4
-10 -198 -14 -916 -16 -807 -2 -912 0 -912 13 0 13 21 15 133 15 74 0 175 3
225 6 l92 7 0 142 c0 227 28 288 155 330 l70 24 6 49 c14 109 58 179 134 213
56 26 147 25 202 -2z m5130 -673 c16 -20 20 -21 32 -8 16 16 79 12 151 -9 32
-10 46 -21 61 -52 11 -21 19 -48 18 -60 -2 -12 0 -31 4 -43 4 -12 3 -32 -2
-45 -7 -20 -4 -29 22 -57 29 -30 30 -34 19 -65 -7 -18 -12 -41 -12 -50 0 -17
-44 -67 -59 -67 -5 0 -26 7 -46 16 -25 10 -60 14 -102 12 -34 -2 -63 0 -63 3
0 4 7 20 15 35 25 49 16 123 -19 146 -19 13 -90 9 -120 -7 -15 -8 -30 -15 -32
-15 -2 0 -4 29 -4 65 0 46 -6 78 -20 105 -35 68 5 120 91 120 38 0 51 -5 66
-24z m-763 -75 c33 -6 56 -16 68 -31 17 -21 20 -22 36 -6 20 18 67 22 77 6 3
-5 16 -10 29 -10 53 0 96 -107 53 -131 -25 -14 -64 -87 -78 -144 -6 -27 -13
-52 -15 -54 -2 -2 -22 13 -45 32 -49 42 -89 54 -130 37 -43 -18 -61 -60 -58
-133 1 -34 -2 -61 -7 -60 -5 2 -36 12 -69 24 -42 15 -76 20 -113 17 -50 -4
-53 -3 -71 26 -13 21 -19 50 -19 90 0 52 3 63 28 88 16 15 37 28 47 28 15 0
18 6 15 38 -3 26 1 42 12 51 9 8 16 24 16 37 0 13 16 42 36 64 34 37 40 40 88
39 28 0 73 -4 100 -8z m-4984 -196 l0 -75 -200 0 -200 0 0 75 0 75 200 0 200
0 0 -75z m450 0 l0 -75 -200 0 -200 0 0 75 0 75 200 0 200 0 0 -75z m450 0 l0
-75 -200 0 -200 0 0 68 c0 38 3 72 7 75 3 4 93 7 200 7 l193 0 0 -75z m450 0
l0 -75 -200 0 -200 0 0 68 c0 38 3 72 7 75 3 4 93 7 200 7 l193 0 0 -75z m276
65 l184 0 0 -39 0 -38 -90 -32 c-79 -27 -101 -31 -200 -31 l-110 0 0 76 c0 65
2 75 16 70 9 -3 99 -6 200 -6z m-2076 -70 l0 -70 -82 0 c-68 0 -101 7 -183 35
-55 19 -108 35 -117 35 -14 0 -18 8 -18 35 l0 35 200 0 200 0 0 -70z m-630
-42 c0 -6 -8 -20 -17 -30 -9 -10 -18 -42 -21 -73 -4 -44 -1 -59 17 -81 16 -21
19 -30 9 -41 -6 -8 -18 -11 -26 -8 -8 3 -25 -3 -36 -13 -25 -23 -68 -35 -91
-26 -8 4 -22 19 -30 34 -8 15 -26 31 -41 34 -26 7 -26 9 -21 58 10 78 27 98
87 98 41 0 55 5 82 30 33 30 88 41 88 18z m177 2 c56 0 61 -13 49 -126 l-9
-86 -36 6 c-20 3 -61 6 -91 6 -30 0 -61 4 -68 9 -7 4 -16 33 -19 65 -6 55 -5
57 33 97 32 33 44 39 68 34 16 -3 48 -5 73 -5z m2964 -29 l42 -38 -7 -56 c-4
-31 -13 -60 -19 -65 -7 -5 -55 -11 -107 -13 l-95 -4 -1 35 c-1 19 -4 60 -8 91
-9 68 -1 76 74 82 30 2 60 4 67 5 7 1 31 -15 54 -37z m122 12 c22 -22 41 -29
85 -33 50 -4 58 -8 70 -33 7 -15 14 -46 15 -69 2 -37 -1 -44 -26 -56 -16 -7
-33 -24 -39 -37 -6 -13 -19 -26 -29 -28 -28 -7 -86 11 -93 28 -4 11 -13 14
-29 10 -34 -9 -42 19 -16 55 19 24 21 36 14 85 -4 38 -12 59 -25 67 -10 6 -16
18 -13 25 9 22 55 15 86 -14z m-2898 -33 c22 -11 51 -20 65 -20 27 0 70 -25
70 -41 0 -5 -6 -9 -13 -9 -8 0 -22 -9 -32 -20 -13 -15 -31 -20 -68 -20 -44 0
-54 4 -88 39 -25 25 -39 48 -39 65 0 23 4 26 33 26 18 0 50 -9 72 -20z m2551
-12 c-3 -20 -20 -46 -43 -65 -30 -27 -45 -33 -83 -33 -34 0 -52 5 -65 20 -10
11 -24 20 -32 20 -7 0 -13 4 -13 9 0 18 44 41 77 41 17 0 35 5 38 11 11 16 46
28 89 28 38 1 38 1 32 -31z m-1966 -93 l0 -75 -91 0 c-91 0 -91 0 -138 38 -25
21 -67 53 -93 71 -27 17 -48 34 -48 36 0 3 83 5 185 5 l185 0 0 -75z m410 0
l0 -75 -180 0 -180 0 0 75 0 75 180 0 180 0 0 -75z m420 0 l0 -75 -182 2 -183
3 -3 59 c-2 32 -1 65 2 72 4 11 43 14 186 14 l180 0 0 -75z m410 0 l0 -75
-180 0 -180 0 0 75 0 75 180 0 180 0 0 -75z m349 24 c-41 -28 -85 -62 -100
-75 -22 -21 -34 -24 -107 -24 l-82 0 0 75 0 75 182 0 182 0 -75 -51z m-2830 0
c-10 -31 -8 -42 15 -87 15 -30 37 -56 53 -64 32 -15 41 -49 19 -67 -8 -7 -12
-19 -9 -26 3 -8 -4 -30 -16 -48 -12 -19 -21 -42 -21 -51 0 -9 -7 -16 -15 -16
-9 0 -30 -8 -48 -17 -44 -23 -109 -34 -124 -21 -15 12 -18 108 -3 108 19 0 31
39 19 61 -13 26 8 81 58 147 18 24 33 49 33 56 0 12 41 68 46 63 2 -2 -2 -19
-7 -38z m3801 -31 c0 -7 13 -29 28 -48 16 -19 38 -54 50 -77 18 -36 19 -46 9
-73 -11 -29 -10 -34 11 -50 17 -14 22 -29 22 -62 0 -24 -5 -49 -11 -55 -15
-15 -87 -4 -124 19 -16 10 -38 18 -47 18 -10 0 -18 6 -18 14 0 8 -9 31 -21 51
-12 19 -19 42 -16 49 3 8 -1 20 -9 26 -23 20 -16 50 14 67 16 9 41 40 57 69
25 46 27 56 17 79 -19 42 -14 49 13 17 14 -17 25 -36 25 -44z m-3153 -29 c17
-15 17 -35 -2 -43 -8 -3 -15 -14 -15 -24 0 -24 -57 -129 -73 -135 -26 -10 -55
13 -72 56 -20 53 -14 79 24 106 16 11 34 34 41 50 12 30 12 30 48 15 19 -8 41
-19 49 -25z m199 33 c16 -11 -1 -188 -21 -219 -16 -23 -21 -25 -77 -21 -69 5
-82 16 -92 79 -8 51 10 84 72 126 57 38 96 50 118 35z m2178 -30 c58 -39 90
-86 82 -119 -19 -82 -33 -93 -117 -93 -40 0 -47 3 -59 28 -17 36 -29 204 -15
214 16 12 67 -2 109 -30z m186 4 c4 -13 23 -35 41 -49 24 -18 32 -33 32 -55 0
-68 -51 -127 -85 -99 -23 19 -68 103 -68 127 0 11 -7 23 -15 26 -26 10 -17 40
18 57 45 22 66 21 77 -7z m-2249 -45 c85 -51 210 -200 206 -246 -2 -29 -3 -30
-52 -27 -84 4 -93 9 -125 65 -16 29 -43 63 -60 75 -20 15 -30 31 -30 50 -1 15
-7 38 -15 52 -18 32 -19 70 -2 70 7 0 42 -17 78 -39z m1929 24 c0 -9 -6 -28
-14 -43 -8 -15 -17 -44 -21 -64 -4 -23 -17 -43 -36 -57 -16 -12 -40 -44 -54
-71 -26 -52 -30 -54 -117 -65 -41 -5 -48 -3 -58 15 -13 25 -6 37 76 142 55 68
80 90 156 133 50 29 68 31 68 10z m-2450 -68 c0 -18 4 -46 9 -63 15 -52 0 -64
-77 -60 -37 2 -70 4 -74 5 -14 2 -38 60 -38 91 0 24 4 30 21 30 12 0 27 7 34
16 14 20 83 34 108 22 11 -6 17 -20 17 -41z m3003 17 c4 -8 19 -14 32 -14 21
0 25 -5 25 -30 0 -31 -24 -89 -38 -91 -4 -1 -37 -3 -74 -5 -80 -4 -96 8 -79
57 6 18 11 49 11 70 0 28 5 39 18 41 28 6 96 -12 105 -28z m-3215 -46 c13 -13
16 -59 6 -95 -6 -20 -13 -23 -60 -23 -29 0 -56 5 -59 11 -4 6 -4 31 0 55 5 33
12 47 28 54 32 13 71 12 85 -2z m1222 -63 l0 -75 -117 0 -118 1 -33 52 c-18
29 -40 62 -48 75 l-16 22 166 0 166 0 0 -75z m400 0 l0 -75 -175 0 -175 0 0
75 0 75 175 0 175 0 0 -75z m410 0 l0 -75 -180 0 -180 0 0 75 0 75 180 0 180
0 0 -75z m335 9 c-25 -36 -45 -69 -45 -75 0 -5 -52 -9 -120 -9 l-120 0 0 75 0
75 165 0 165 0 -45 -66z m1018 57 c19 -8 26 -19 32 -57 8 -56 0 -64 -67 -64
-42 0 -47 3 -56 29 -11 31 -6 67 11 89 11 14 46 16 80 3z m-2903 -111 c58 -21
65 -26 68 -53 2 -17 -4 -32 -17 -44 -12 -9 -21 -23 -21 -30 0 -16 -40 -37 -50
-26 -4 4 -10 17 -12 28 -3 17 -10 20 -54 17 -61 -4 -73 11 -48 61 36 71 51 76
134 47z m205 14 c25 -10 85 -94 85 -119 0 -12 -7 -28 -15 -35 -8 -7 -15 -25
-15 -41 0 -24 -4 -29 -24 -29 -13 0 -37 7 -52 15 -16 8 -43 15 -61 15 -17 0
-34 4 -37 9 -3 4 -3 38 1 75 5 55 9 66 25 66 10 0 28 11 40 25 23 27 28 28 53
19z m1979 -19 c10 -15 26 -25 40 -25 22 0 24 -5 29 -67 6 -75 1 -83 -49 -83
-16 0 -39 -7 -50 -15 -10 -8 -31 -15 -46 -15 -23 0 -28 4 -28 24 0 13 -7 29
-15 36 -25 21 -17 64 20 113 49 64 73 72 99 32z m274 -15 c13 -19 22 -45 20
-60 -3 -23 -7 -25 -52 -25 -45 0 -50 -2 -59 -28 -10 -32 -34 -33 -51 -2 -6 11
-19 26 -29 33 -13 10 -17 24 -15 50 3 34 6 37 41 43 21 3 43 11 50 18 23 23
70 8 95 -29z m-2797 -9 c40 -41 37 -55 -18 -72 -38 -12 -52 -23 -73 -58 -14
-24 -29 -44 -35 -45 -14 -1 -16 116 -2 145 11 21 68 59 90 59 5 0 22 -13 38
-29z m163 23 c10 -4 16 -18 16 -39 0 -31 -3 -34 -38 -40 -56 -9 -92 8 -92 44
0 16 6 32 13 34 18 8 83 8 101 1z m2790 0 c10 -4 16 -18 16 -35 0 -36 -36 -53
-92 -44 -35 6 -38 9 -38 40 0 18 6 36 13 38 18 8 83 8 101 1z m139 -7 c18 -8
38 -21 46 -31 16 -19 21 -158 6 -163 -6 -1 -21 18 -35 44 -20 37 -33 49 -65
60 -69 23 -67 21 -56 40 14 26 50 63 62 63 5 0 24 -6 42 -13z m-3269 -33 c10
-10 16 -33 16 -65 0 -95 -72 -130 -174 -85 -48 22 -57 29 -54 48 2 15 16 30
41 42 21 10 48 31 59 47 17 23 30 29 59 29 21 0 45 -7 53 -16z m3484 -14 c15
-17 43 -38 62 -48 26 -13 35 -23 35 -42 0 -21 -9 -28 -59 -48 -106 -42 -166
-8 -166 94 0 60 12 73 68 74 24 0 40 -8 60 -30z m-2048 -89 l0 -69 -62 -7
c-35 -3 -112 -5 -173 -3 l-109 3 -18 55 c-30 97 -44 90 172 90 l190 0 0 -69z
m430 -1 l0 -70 -190 0 -190 0 0 70 0 70 190 0 190 0 0 -70z m430 21 c0 -27 -4
-61 -10 -75 -9 -26 -10 -26 -128 -26 -66 0 -147 3 -181 6 l-61 7 0 68 0 69
190 0 190 0 0 -49z m-1320 -3 c48 -23 49 -24 69 -99 21 -75 20 -129 -2 -156
-16 -22 -62 -15 -85 12 -12 14 -29 25 -37 25 -8 0 -15 5 -15 11 0 6 -25 35
-55 64 -58 56 -67 84 -41 120 14 19 67 43 99 44 10 1 40 -9 67 -21z m1537 7
c79 -33 81 -72 8 -145 -30 -30 -55 -60 -55 -67 0 -7 -7 -13 -15 -13 -9 0 -27
-12 -40 -26 -17 -18 -32 -25 -52 -22 -54 6 -65 76 -28 193 13 42 21 53 58 72
50 26 76 28 124 8z m-2784 -39 c48 -19 97 -80 97 -119 1 -37 -59 -157 -77
-157 -9 0 -13 18 -13 59 0 42 -5 62 -17 72 -35 29 -66 132 -46 152 9 10 20 9
56 -7z m3974 -1 c9 -25 -18 -103 -43 -128 -20 -18 -24 -32 -24 -84 0 -84 -17
-82 -64 7 -34 64 -36 74 -26 104 13 41 53 84 95 102 40 17 54 17 62 -1z
m-3045 -42 c72 -7 79 -24 28 -73 -23 -22 -51 -40 -63 -40 -12 0 -38 -17 -59
-37 -21 -20 -40 -34 -43 -31 -3 3 -9 37 -12 76 -5 64 -4 73 18 100 21 26 27
28 54 19 17 -5 51 -12 77 -14z m2190 -13 c16 -22 18 -36 12 -98 -4 -39 -11
-72 -16 -72 -5 0 -24 16 -42 35 -19 19 -43 35 -54 35 -12 0 -40 18 -64 39 -36
34 -40 41 -29 55 8 10 29 16 55 16 22 0 48 5 56 10 24 16 62 7 82 -20z m-2817
-16 c22 -23 25 -36 25 -99 l0 -72 -68 2 c-66 2 -70 3 -105 41 -40 43 -45 68
-21 103 14 19 23 22 50 18 24 -4 40 0 56 13 30 25 35 25 63 -6z m3370 6 c12
-13 25 -17 45 -14 40 8 67 -10 73 -48 4 -28 -1 -39 -37 -74 -41 -41 -42 -42
-106 -39 l-65 2 3 74 c3 64 7 77 28 97 31 27 36 27 59 2z m3591 -35 c31 -34
35 -35 56 -21 31 20 152 15 195 -7 34 -18 73 -89 73 -133 0 -12 5 -26 10 -29
13 -8 13 -48 -1 -79 -10 -22 -8 -28 15 -48 21 -18 27 -34 31 -80 4 -50 1 -61
-21 -87 -35 -42 -53 -45 -125 -21 -55 19 -70 20 -123 11 -33 -6 -61 -9 -63 -7
-2 2 4 22 13 45 21 54 14 125 -15 155 -30 29 -102 29 -159 -1 -23 -13 -44 -23
-46 -23 -2 0 -5 37 -8 83 -3 58 -11 96 -25 123 -13 26 -18 46 -12 60 9 26 56
64 78 64 9 1 27 7 41 15 37 21 49 18 86 -20z m-6226 -25 c0 -39 35 -42 52 -4
11 23 13 24 24 9 7 -9 10 -25 7 -36 -3 -11 2 -28 12 -39 23 -25 13 -47 -27
-64 -42 -18 -84 -3 -105 38 -9 17 -23 36 -32 42 -13 10 -12 16 12 48 35 45 57
47 57 6z m1895 -6 c28 -36 28 -37 8 -53 -10 -9 -24 -28 -30 -42 -17 -38 -62
-52 -105 -31 -38 19 -47 45 -24 68 10 9 14 24 10 38 -3 13 0 27 9 34 11 10 16
7 26 -14 15 -33 45 -28 49 9 4 37 24 34 57 -9z m-1285 -60 c0 -77 -2 -86 -20
-91 -17 -4 -20 -14 -20 -55 0 -54 -32 -111 -56 -101 -11 4 -14 -10 -14 -66 0
-64 -2 -71 -20 -71 -18 0 -20 -7 -20 -64 0 -56 -3 -66 -24 -80 -13 -8 -27 -29
-31 -46 -6 -26 -11 -30 -41 -30 l-34 0 0 -400 c0 -392 0 -400 -20 -400 -19 0
-20 -8 -22 -276 l-3 -277 -48 -14 c-47 -13 -48 -13 -92 17 -46 32 -58 63 -30
74 9 3 23 22 31 43 20 47 6 103 -31 127 -14 9 -25 24 -25 32 0 9 19 57 43 108
l42 91 -1 143 c0 110 3 142 13 142 7 0 13 6 13 13 -1 24 -39 96 -79 150 -24
31 -41 65 -41 80 0 43 28 114 105 268 89 177 106 224 141 404 22 118 26 157
22 252 l-5 113 133 0 134 0 0 -86z m98 10 c2 -54 -1 -76 -13 -87 -8 -9 -15
-33 -15 -56 0 -47 -18 -91 -37 -91 -9 0 -13 -17 -13 -64 0 -48 -4 -65 -15 -70
-11 -4 -15 -22 -15 -69 0 -44 -5 -68 -14 -77 -8 -6 -16 -21 -18 -33 -2 -14
-11 -23 -25 -25 l-23 -3 0 -375 c0 -326 -2 -374 -15 -374 -13 0 -15 -52 -15
-405 l0 -405 430 0 430 0 0 405 c0 353 -2 405 -15 405 -13 0 -15 48 -15 374
l0 375 -22 3 c-15 2 -24 13 -30 36 -5 17 -13 32 -18 32 -6 0 -10 31 -10 70 0
56 -3 70 -15 70 -12 0 -15 14 -15 65 0 48 -4 65 -13 65 -19 0 -37 44 -37 91 0
23 -7 47 -15 56 -12 11 -15 33 -13 87 3 65 5 71 26 74 21 3 22 1 22 -83 0 -72
3 -91 20 -112 14 -18 20 -41 20 -74 0 -33 4 -49 13 -49 6 0 24 -16 40 -34 23
-30 27 -44 27 -100 0 -59 2 -66 20 -66 18 0 20 -7 20 -65 0 -58 2 -65 20 -65
25 0 42 -33 34 -65 -6 -24 -4 -25 35 -25 l41 0 0 -394 c0 -385 0 -394 20 -399
20 -5 20 -14 20 -381 l0 -376 -590 0 -590 0 0 376 c0 367 0 376 20 381 19 5
20 14 20 227 0 121 3 299 7 394 l6 172 33 0 c31 0 33 2 36 43 2 35 7 43 26 45
20 3 22 9 22 67 0 58 2 64 23 67 20 3 22 9 25 71 2 52 8 74 22 90 11 11 20 24
20 29 0 4 7 8 15 8 11 0 15 12 15 48 0 31 7 55 20 72 16 20 20 41 20 113 0 86
1 88 23 85 20 -3 22 -9 25 -74z m384 -20 c13 -153 20 -204 28 -204 19 0 40
-66 40 -127 0 -49 3 -63 15 -63 12 0 15 -14 15 -66 0 -53 3 -65 14 -61 16 6
26 -13 26 -49 0 -17 6 -24 18 -24 17 0 19 -15 25 -202 4 -112 7 -283 7 -380 0
-112 4 -178 10 -178 6 0 10 -45 10 -115 l0 -114 -36 -17 c-20 -10 -46 -32 -57
-50 -12 -19 -34 -39 -49 -45 -15 -6 -34 -22 -43 -35 -8 -13 -21 -24 -29 -24
-7 0 -30 -11 -51 -25 -21 -15 -44 -23 -55 -20 -9 3 -28 -3 -40 -13 -20 -16
-27 -17 -48 -6 -13 7 -31 10 -38 7 -7 -3 -25 5 -40 16 -15 12 -33 21 -40 21
-7 0 -34 18 -59 40 -25 22 -49 40 -53 40 -4 0 -16 13 -27 29 -10 17 -36 39
-57 51 l-38 21 0 119 c0 76 4 120 11 122 7 2 13 123 16 381 l6 377 23 0 c17 0
22 4 18 15 -10 25 4 65 21 59 12 -5 15 6 15 60 0 49 3 66 14 66 7 0 16 -13 19
-30 4 -16 14 -41 23 -56 l17 -25 36 34 c53 51 98 70 161 70 64 0 108 -19 162
-70 l36 -35 16 30 c37 72 7 147 -65 158 -28 5 -42 14 -52 33 -8 14 -28 49 -46
77 -18 28 -38 73 -45 100 l-13 49 -12 -57 c-8 -35 -26 -76 -47 -105 -19 -27
-39 -60 -45 -75 -6 -16 -14 -26 -18 -23 -16 9 -81 -16 -96 -38 -14 -20 -15
-19 -15 34 0 55 22 119 41 119 5 0 9 21 9 48 1 26 7 58 15 72 9 15 14 54 15
100 l0 75 162 -1 163 0 7 -90z m403 59 c-14 -73 -6 -212 20 -340 35 -173 45
-203 140 -394 83 -167 117 -269 99 -294 -81 -115 -105 -155 -110 -182 -5 -26
-3 -33 8 -33 13 0 15 -19 11 -132 l-5 -133 40 -90 c58 -129 59 -136 23 -163
-39 -29 -50 -81 -27 -128 9 -19 23 -37 31 -40 29 -11 15 -42 -32 -72 -45 -29
-51 -30 -90 -19 l-43 11 0 277 0 278 -22 3 -23 3 -3 398 -2 397 -35 0 c-29 0
-35 4 -35 21 0 12 -13 34 -30 49 -27 25 -30 34 -30 89 0 54 -2 61 -20 61 -18
0 -20 7 -20 71 0 49 -3 68 -11 63 -6 -3 -22 6 -35 22 -18 22 -23 42 -24 82 0
38 -4 52 -14 52 -20 0 -26 23 -26 106 l0 74 136 0 136 0 -7 -37z m-1485 -175
c0 -22 -38 -32 -94 -25 -40 6 -45 4 -74 -28 -17 -19 -39 -35 -51 -35 -24 0
-51 36 -51 68 0 46 73 132 114 132 13 0 28 5 31 11 9 14 125 -100 125 -123z
m1980 112 c43 0 116 -103 105 -148 -16 -63 -59 -70 -99 -17 -25 32 -29 34 -71
29 -60 -9 -97 2 -93 26 2 10 26 43 53 73 39 42 54 52 67 46 9 -5 26 -9 38 -9z
m-2896 -6 c8 -20 -1 -34 -19 -34 -16 0 -38 34 -28 44 12 12 41 6 47 -10z
m3694 -6 c-4 -30 -48 -39 -48 -10 0 24 8 32 32 32 14 0 19 -6 16 -22z m-3504
-68 c9 -7 16 -25 16 -40 0 -23 -7 -31 -40 -44 -45 -18 -62 -14 -85 20 -8 13
-21 24 -28 24 -6 0 -29 5 -49 11 -29 7 -38 15 -38 31 0 20 4 20 104 16 65 -3
111 -10 120 -18z m1011 -1 c8 -24 -3 -142 -16 -176 -5 -14 -17 -23 -30 -23
-26 0 -124 63 -133 86 -8 21 -8 119 1 127 3 4 44 7 89 7 75 0 83 -2 89 -21z
m1433 -24 c7 -77 -4 -102 -62 -140 -91 -60 -112 -47 -122 79 -10 108 -11 107
93 104 l88 -3 3 -40z m1052 31 c0 -19 -19 -33 -60 -41 -19 -4 -49 -20 -66 -37
l-31 -29 -42 17 c-40 16 -42 19 -39 53 3 33 6 37 38 42 19 4 72 7 118 8 64 1
82 -2 82 -13z m-3680 -68 c18 -13 38 -32 44 -43 6 -11 21 -33 34 -48 17 -22
22 -42 22 -83 l0 -55 -62 7 c-35 4 -65 11 -67 17 -2 5 -19 27 -39 49 -33 37
-34 40 -28 95 10 88 34 103 96 61z m3721 -5 c5 -15 13 -46 16 -70 5 -39 2 -46
-29 -81 -20 -22 -37 -44 -39 -49 -2 -6 -32 -13 -66 -17 l-63 -7 0 60 c0 33 5
63 10 66 6 4 22 24 36 46 26 42 77 79 107 79 10 0 22 -12 28 -27z m-2732 4 c8
-10 7 -19 -4 -33 -13 -18 -15 -18 -31 -2 -18 18 -13 48 9 48 8 0 20 -6 26 -13z
m1701 -11 c0 -31 -18 -43 -36 -24 -19 18 -8 48 17 48 13 0 19 -7 19 -24z
m3519 15 c40 -6 60 -15 77 -34 22 -25 22 -25 40 -6 18 20 68 26 79 9 3 -5 17
-10 30 -10 31 0 75 -53 75 -91 0 -20 -10 -41 -31 -62 -37 -38 -66 -97 -75
-155 l-6 -41 -41 34 c-78 67 -147 68 -188 3 -17 -27 -20 -45 -16 -99 l4 -65
-66 23 c-47 17 -82 24 -125 22 -57 -3 -60 -1 -83 31 -19 29 -22 44 -19 99 3
56 8 69 31 88 14 13 35 23 45 23 16 0 19 5 13 31 -4 22 0 38 16 59 11 16 21
38 21 49 0 11 16 38 37 60 33 37 41 41 82 40 25 0 70 -4 100 -8z m-5309 -36
c62 -32 148 -114 161 -152 6 -21 18 -47 25 -58 16 -22 19 -75 4 -75 -5 0 -28
25 -51 56 -46 60 -82 84 -128 84 -28 0 -81 41 -81 62 0 5 -20 8 -44 8 -31 0
-46 5 -50 16 -8 20 -12 15 49 48 57 30 75 32 115 11z m1951 -12 c65 -35 68
-63 7 -63 -37 0 -47 -5 -70 -34 -21 -27 -36 -34 -72 -38 -54 -6 -66 -15 -118
-86 -22 -29 -45 -51 -51 -49 -16 6 -12 55 6 76 8 9 18 31 22 49 11 52 157 172
208 172 11 0 41 -12 68 -27z m-2653 -51 c1 -37 4 -78 5 -92 2 -21 -3 -26 -25
-28 -40 -5 -51 29 -34 108 10 53 26 79 46 80 3 0 6 -30 8 -68z m3284 44 c10
-15 21 -133 14 -151 -6 -16 -51 -21 -61 -6 -3 6 -1 40 5 76 8 47 7 71 -1 86
-10 19 -9 20 13 14 12 -4 26 -13 30 -19z m-1626 -61 c28 -41 35 -60 30 -80 -6
-25 -9 -26 -74 -23 -63 3 -67 4 -70 28 -2 16 11 43 35 77 21 29 39 52 40 52 2
1 19 -24 39 -54z m-1203 15 c3 -12 14 -20 25 -20 11 0 22 -7 26 -15 4 -12 15
-14 44 -9 45 7 73 -14 47 -36 -13 -11 -11 -17 20 -51 32 -36 34 -41 28 -91
-13 -117 -58 -143 -81 -48 -8 30 -23 65 -33 76 l-20 22 30 22 c17 12 29 26 26
31 -10 15 -47 10 -60 -8 -12 -16 -17 -15 -71 12 -33 16 -60 30 -62 31 -9 6 56
102 69 103 4 1 9 -8 12 -19z m2380 -17 c39 -53 35 -67 -29 -98 -51 -25 -57
-26 -73 -11 -19 18 -57 21 -66 6 -3 -5 8 -16 25 -25 32 -17 39 -39 15 -52 -8
-5 -19 -32 -25 -62 -11 -61 -16 -71 -34 -71 -22 0 -44 43 -51 102 -7 52 -5 57
26 92 29 33 31 40 20 58 -17 28 2 40 50 33 27 -3 38 -1 43 10 3 8 14 15 25 15
11 0 22 9 26 20 9 27 16 25 48 -17z m-1863 -57 c0 -7 -3 -28 -6 -45 -6 -29
-10 -32 -33 -26 -39 10 -58 32 -45 52 17 28 84 43 84 19z m1357 4 c7 0 17 -10
24 -21 13 -25 -1 -44 -42 -54 -22 -5 -27 -2 -33 17 -3 13 -6 34 -6 47 0 19 4
22 23 17 12 -3 27 -6 34 -6z m-817 -50 c8 -5 12 -10 10 -12 -33 -24 -88 -58
-93 -58 -4 0 -7 11 -7 24 0 41 54 69 90 46z m282 -7 c10 -9 18 -26 18 -39 0
-23 0 -23 -50 8 -27 17 -47 35 -44 39 9 15 56 10 76 -8z m-2014 -17 c15 -20
29 -25 75 -27 42 -2 61 2 75 14 18 17 63 23 75 11 10 -11 -53 -99 -76 -104
-12 -3 -27 -17 -34 -30 -19 -38 -43 -50 -97 -49 -66 1 -101 11 -102 29 -1 8
-2 20 -3 26 0 6 -12 16 -26 22 -38 17 -32 48 14 71 21 11 41 29 44 41 7 27 31
25 55 -4z m3739 4 c3 -12 23 -30 44 -41 48 -24 51 -52 9 -74 -20 -11 -30 -23
-30 -39 0 -26 -29 -36 -104 -36 -47 0 -71 13 -89 50 -7 13 -22 27 -35 30 -23
5 -85 88 -76 102 9 14 57 9 76 -9 29 -26 116 -19 148 13 30 29 50 31 57 4z
m-2732 -26 c33 -19 66 -43 73 -52 18 -24 14 -98 -8 -142 -32 -62 -70 -50 -105
33 -9 22 -26 42 -40 47 -23 9 -25 15 -24 61 2 39 -2 54 -14 61 -28 15 -19 28
21 28 25 0 57 -12 97 -36z m1798 30 c3 -3 -4 -15 -14 -25 -17 -17 -19 -28 -13
-64 6 -42 4 -45 -20 -55 -17 -6 -33 -25 -45 -53 -34 -78 -73 -88 -104 -24 -23
45 -26 123 -6 142 54 53 179 102 202 79z m-2123 -49 c5 -14 18 -28 27 -32 24
-9 33 -23 33 -55 0 -17 8 -33 20 -40 24 -16 25 -26 3 -50 -9 -11 -30 -18 -51
-18 -23 0 -46 -10 -72 -30 -42 -34 -78 -39 -87 -12 -3 9 -19 28 -35 42 l-29
25 26 34 c14 19 25 42 25 50 0 17 99 110 118 111 7 0 17 -11 22 -25z m2406
-22 c29 -27 54 -55 54 -64 0 -9 9 -28 20 -42 26 -33 25 -51 -4 -71 -14 -8 -27
-24 -31 -35 -10 -32 -31 -31 -82 5 -29 21 -60 34 -79 34 -19 0 -39 9 -53 24
l-23 25 21 13 c13 8 24 28 28 51 4 28 12 41 29 47 13 5 26 21 30 35 9 36 28
31 90 -22z m-2132 -151 c5 -19 20 -41 33 -49 25 -17 30 -51 12 -85 -10 -18
-17 -20 -66 -14 -74 9 -91 19 -95 59 -2 25 -10 35 -36 46 -37 17 -40 44 -5 49
12 2 27 10 34 18 9 10 27 14 63 12 48 -3 51 -5 60 -36z m1896 24 c6 -8 21 -16
33 -18 34 -5 32 -32 -3 -45 -30 -11 -34 -16 -44 -64 -7 -31 -18 -37 -93 -46
-62 -7 -73 1 -73 54 0 20 7 37 19 45 10 7 26 30 34 51 15 36 18 37 65 37 31 0
54 -5 62 -14z m-2081 -102 c44 -37 40 -59 -16 -88 -27 -13 -61 -38 -77 -55
l-29 -30 37 -22 c46 -27 43 -48 -9 -66 -42 -14 -56 -29 -48 -50 8 -21 54 -15
98 12 66 40 71 31 24 -45 -38 -61 -63 -65 -145 -19 -47 27 -62 31 -105 27 -49
-5 -50 -5 -67 31 -14 29 -22 35 -42 33 -14 -2 -36 -3 -50 -3 -17 0 -31 -9 -42
-30 -20 -33 -61 -40 -77 -11 -20 37 41 142 83 142 7 0 23 11 36 25 19 20 33
25 75 25 82 0 102 37 35 64 -44 17 -51 39 -20 56 28 15 107 15 125 0 23 -19
17 -61 -15 -104 -17 -22 -30 -51 -30 -66 0 -63 55 -56 65 8 8 44 52 150 73
175 23 27 84 22 121 -9z m2288 -39 c18 -33 37 -83 43 -112 13 -60 32 -82 55
-63 24 20 18 64 -15 105 -33 41 -39 85 -15 105 22 18 104 14 126 -6 26 -24 24
-29 -21 -49 -50 -23 -55 -29 -34 -49 10 -11 33 -16 68 -16 41 0 57 -5 72 -21
10 -12 34 -28 52 -36 42 -18 73 -68 70 -113 -3 -30 -7 -35 -29 -38 -19 -2 -33
5 -49 25 -12 16 -33 29 -48 30 -15 2 -38 4 -51 6 -19 2 -26 -5 -36 -33 -12
-35 -12 -35 -66 -32 -45 3 -63 -2 -109 -27 -80 -44 -103 -42 -140 17 -28 44
-37 72 -24 72 3 0 22 -11 42 -25 41 -28 90 -33 98 -10 8 20 -11 41 -44 50 -41
10 -55 25 -40 42 7 8 22 19 35 24 13 5 23 15 23 22 0 20 -50 64 -92 81 -44 19
-52 30 -44 61 8 33 52 55 101 52 38 -2 42 -5 72 -62z m-2087 -94 c0 -61 -18
-86 -80 -116 l-60 -29 -34 33 c-48 46 -50 65 -13 106 31 34 34 34 110 35 l77
0 0 -29z m1916 2 c20 -17 34 -37 34 -50 0 -24 -55 -93 -74 -93 -7 0 -37 14
-68 30 -58 31 -68 47 -68 108 l0 32 71 0 c61 0 74 -3 105 -27z m-1938 -208
c62 -53 108 -115 93 -125 -10 -5 -11 -24 -6 -66 4 -33 7 -102 8 -154 1 -89 -1
-101 -36 -183 -47 -110 -50 -148 -14 -185 15 -16 27 -37 27 -49 0 -34 -22 -44
-87 -37 -33 4 -83 1 -114 -5 -48 -10 -60 -19 -110 -74 l-57 -62 -105 0 c-86 0
-108 3 -124 18 -32 28 -97 22 -147 -13 l-42 -30 -191 -6 c-173 -5 -191 -4
-197 12 -4 10 1 25 10 35 15 16 32 19 117 19 78 0 117 5 185 26 79 24 96 35
144 90 9 10 24 25 32 32 18 15 21 54 5 84 -22 40 -71 50 -291 56 -157 4 -211
8 -219 18 -13 16 -15 16 77 14 62 -1 75 2 100 23 16 13 38 27 50 31 30 9 58
79 43 107 -9 17 -9 38 1 91 19 109 53 132 224 154 70 8 45 22 -56 30 l-86 7
18 30 c10 16 43 47 74 68 45 31 65 39 100 39 25 0 46 -5 48 -11 2 -6 19 -14
38 -18 25 -5 36 -13 38 -28 3 -18 12 -21 73 -27 62 -7 71 -10 79 -32 9 -22 15
-25 47 -22 32 3 38 7 41 28 3 28 127 149 153 150 8 0 34 -16 57 -35z m1919
-26 c50 -46 68 -69 68 -88 1 -24 4 -26 45 -26 39 0 45 3 48 22 3 19 11 22 77
28 65 6 74 10 77 28 2 15 13 23 38 28 19 4 36 12 38 18 2 6 23 11 47 11 35 0
56 -8 99 -37 45 -31 86 -76 86 -96 0 -2 -36 -7 -81 -10 -44 -4 -85 -10 -92
-14 -15 -9 24 -21 73 -22 109 -3 170 -51 189 -150 10 -51 10 -69 0 -87 -17
-32 12 -92 52 -107 16 -6 29 -15 29 -19 0 -4 14 -15 32 -24 24 -13 46 -15 95
-10 52 5 63 4 63 -9 0 -21 -20 -23 -236 -29 -202 -5 -252 -15 -273 -54 -22
-42 -13 -70 44 -126 73 -74 144 -98 309 -106 125 -5 148 -15 133 -54 -6 -16
-24 -17 -194 -12 l-188 6 -43 30 c-50 35 -113 41 -145 13 -16 -15 -38 -18
-124 -18 l-104 0 -58 61 c-68 73 -119 91 -231 80 -57 -6 -68 -4 -74 9 -11 31
-6 51 20 76 22 21 25 30 22 69 -3 25 -22 87 -42 138 -35 88 -37 98 -32 175 3
45 8 106 11 135 5 35 3 57 -5 67 -9 11 -8 20 8 42 31 43 119 123 136 123 9 0
46 -28 83 -61z m4118 -205 c21 -31 22 -31 50 -16 33 17 73 10 177 -30 72 -28
90 -61 94 -175 3 -68 0 -85 -16 -106 -19 -24 -19 -24 7 -38 14 -8 32 -27 38
-43 11 -26 10 -38 -8 -85 -20 -56 -48 -95 -78 -111 -10 -6 -33 0 -68 17 -39
20 -73 28 -132 31 -43 3 -79 6 -79 7 0 2 11 26 25 53 35 71 34 130 -4 171 -25
27 -36 31 -78 31 -26 -1 -66 -7 -88 -15 -21 -8 -40 -13 -41 -12 -1 1 2 27 8
57 12 64 5 127 -18 171 -18 36 -8 73 29 107 27 25 47 29 111 22 42 -4 54 -10
71 -36z m-903 11 c104 -49 133 -70 151 -107 17 -34 20 -36 56 -31 35 5 42 1
89 -45 43 -42 52 -57 52 -86 0 -54 -18 -83 -64 -101 -59 -24 -101 -59 -140
-117 l-34 -50 -22 51 c-31 70 -79 111 -131 111 -22 0 -49 -5 -60 -10 -26 -14
-65 -77 -74 -120 -4 -19 -9 -39 -12 -43 -3 -4 -29 14 -58 42 -48 45 -85 67
-167 100 -39 15 -48 71 -20 125 11 23 23 51 27 63 9 33 33 47 89 53 41 4 52 9
54 25 6 30 109 128 156 147 53 22 47 22 108 -7z m-6254 -91 c16 -5 22 -14 22
-35 0 -50 16 -77 52 -84 18 -4 43 -18 55 -31 17 -19 29 -23 55 -19 32 5 32 5
8 -7 -14 -7 -31 -21 -38 -30 -17 -23 -117 -25 -169 -3 -41 17 -50 13 -55 -30
l-3 -30 -93 -3 -93 -3 -34 34 c-41 41 -51 77 -36 128 8 28 20 43 39 51 15 7
34 17 42 24 40 33 78 44 150 44 41 0 85 -3 98 -6z m4244 -21 c13 -11 37 -27
53 -34 17 -8 38 -30 48 -51 24 -48 10 -105 -34 -142 -28 -24 -39 -26 -119 -26
-94 0 -114 9 -104 47 8 28 -12 38 -39 20 -12 -7 -52 -17 -89 -21 -62 -6 -69
-5 -90 16 -12 13 -34 29 -48 36 -24 12 -23 12 13 8 32 -4 43 -1 62 19 12 14
30 25 39 25 30 0 66 46 66 84 0 43 7 45 127 42 77 -2 96 -5 115 -23z m-4067 7
c49 0 57 -11 48 -64 -5 -35 -7 -36 -50 -36 -68 0 -122 46 -108 91 6 17 13 20
37 15 17 -3 50 -6 73 -6z m3775 -20 c0 -54 -55 -91 -122 -81 -22 2 -29 10 -34
37 -10 54 -2 63 63 67 32 2 66 4 76 5 13 2 17 -5 17 -28z m-1560 -480 l0 -210
-40 0 -40 0 0 176 0 176 34 34 c19 19 37 34 40 34 3 0 6 -94 6 -210z m-699
147 c17 -29 19 -48 17 -197 l-3 -165 -37 -3 -38 -3 0 211 c0 209 0 211 21 200
11 -6 29 -26 40 -43z m569 -202 c0 -148 -1 -155 -20 -155 -19 0 -20 7 -20 133
0 104 3 137 16 155 8 12 17 22 20 22 2 0 4 -70 4 -155z m-460 -32 c0 -126 -1
-133 -20 -133 -19 0 -20 7 -20 158 l0 157 20 -25 c17 -22 20 -41 20 -157z
m370 2 l0 -125 -25 0 -25 0 0 109 c0 102 2 111 22 125 12 9 24 16 25 16 2 0 3
-56 3 -125z m-270 -32 l0 -103 -25 0 -25 0 0 127 0 126 25 -23 c24 -22 25 -30
25 -127z m-790 112 c17 -9 30 -19 30 -23 0 -17 -57 -60 -110 -85 -34 -15 -91
-59 -148 -111 -51 -47 -98 -86 -105 -86 -7 0 -26 -14 -43 -31 -16 -17 -49 -40
-74 -51 -25 -11 -59 -35 -76 -54 -18 -19 -41 -34 -52 -34 -12 0 -24 -4 -27
-10 -16 -26 -160 4 -160 33 0 9 -16 26 -35 39 -26 18 -36 33 -41 61 -3 21 -16
48 -28 61 -19 20 -21 28 -12 45 10 18 8 21 -14 27 -16 4 -25 13 -25 25 0 17 8
19 70 19 55 0 72 -4 77 -16 3 -9 -3 -21 -16 -30 -14 -10 -21 -26 -21 -48 0
-64 23 -74 179 -83 52 -3 87 -1 94 6 6 6 27 11 46 11 28 0 42 8 78 47 24 26
65 60 90 77 33 22 49 41 55 63 5 20 21 39 43 53 19 12 46 35 59 51 14 17 36
31 48 33 13 1 32 7 43 14 27 15 41 15 75 -3z m1873 0 c11 -7 25 -11 32 -9 7 3
36 -15 64 -40 28 -25 60 -50 71 -56 11 -6 23 -25 28 -43 6 -22 22 -41 54 -63
26 -16 64 -49 85 -73 46 -52 89 -64 218 -64 114 0 145 6 167 33 24 30 23 77
-2 92 -11 7 -20 21 -20 30 0 16 10 18 75 18 67 0 75 -2 75 -19 0 -13 -8 -21
-22 -23 -19 -2 -22 -8 -20 -31 3 -20 -3 -35 -17 -48 -12 -11 -21 -31 -21 -45
0 -37 -15 -60 -50 -74 -22 -9 -30 -19 -28 -32 2 -15 -7 -23 -37 -34 -81 -28
-149 -10 -222 57 -24 22 -50 39 -58 39 -8 0 -34 17 -58 39 -23 21 -53 42 -67
46 -13 4 -63 45 -111 91 -56 53 -106 92 -140 107 -30 13 -65 37 -79 51 l-25
28 24 19 c27 22 59 24 84 4z m-933 -130 l0 -85 -40 0 -40 0 0 76 c0 66 3 78
22 94 17 13 28 15 40 9 15 -8 18 -24 18 -94z m-852 10 c28 -20 52 -39 52 -44
0 -5 -20 -27 -45 -50 -41 -37 -49 -41 -97 -41 -88 0 -98 6 -98 54 0 23 6 50
13 59 9 14 95 54 117 57 3 0 29 -16 58 -35z m1758 4 c39 -19 42 -22 47 -72 2
-29 3 -54 2 -55 -2 -2 -31 -6 -64 -9 -75 -7 -111 7 -151 57 l-30 38 57 36 c62
38 69 38 139 5z m-2328 -20 c83 3 132 -5 132 -22 -1 -14 -114 -117 -129 -117
-5 0 -31 -11 -56 -25 -36 -19 -52 -22 -71 -15 -14 6 -49 10 -79 10 -64 0 -90
19 -80 59 9 36 24 51 70 71 22 9 47 25 55 34 11 14 22 16 49 10 20 -4 69 -6
109 -5z m2927 -9 c12 -11 42 -31 66 -43 31 -16 45 -30 51 -52 11 -45 -13 -65
-78 -65 -29 0 -64 -4 -78 -10 -19 -7 -35 -4 -71 15 -25 14 -51 25 -56 25 -16
0 -129 103 -129 117 0 17 60 26 133 21 34 -3 73 -1 87 3 41 12 53 10 75 -11z
m-2185 -120 c0 -82 -3 -100 -15 -100 -12 0 -15 -15 -15 -75 l0 -74 -62 -3 -63
-3 -3 -82 -3 -83 -74 0 -75 0 0 -100 0 -100 -95 0 -95 0 0 -100 0 -100 -65 0
-65 0 0 -100 0 -100 -45 0 -45 0 0 -104 0 -103 -50 -6 c-63 -8 -70 -12 -70
-43 0 -25 -1 -25 -57 -18 -92 11 -97 15 -88 87 7 63 30 101 88 147 22 18 27
28 22 49 -5 22 1 32 37 61 24 20 55 43 70 53 22 13 27 24 26 51 -1 29 7 42 44
78 58 57 106 155 119 242 12 85 35 131 98 191 30 29 53 60 57 79 13 63 44 72
96 29 79 -67 100 -67 132 -5 13 26 40 65 60 87 41 46 42 51 20 99 -26 53 -13
81 54 115 31 17 58 30 60 31 1 0 2 -45 2 -100z m1333 74 c72 -37 94 -78 62
-120 -23 -31 -18 -65 17 -101 17 -18 43 -54 57 -80 14 -26 34 -49 43 -51 9 -2
35 9 58 25 87 58 89 59 107 47 10 -6 21 -25 24 -43 4 -20 29 -55 66 -94 63
-66 76 -93 92 -195 12 -75 65 -179 122 -237 29 -30 39 -49 39 -72 0 -28 9 -39
70 -84 62 -46 70 -55 65 -78 -4 -22 4 -35 49 -79 50 -50 54 -58 60 -114 5 -37
3 -65 -3 -71 -5 -5 -44 -15 -85 -22 l-76 -11 0 32 c0 35 -16 44 -77 44 l-33 0
0 105 0 105 -45 0 -45 0 0 100 0 100 -65 0 -65 0 0 100 0 99 -87 3 -88 3 -3
98 -3 97 -84 0 -85 0 0 85 0 85 -60 0 -60 0 0 75 c0 43 -4 75 -10 75 -6 0 -10
38 -10 95 0 60 4 95 10 95 6 0 25 -7 43 -16z m-1733 -28 c0 -19 -5 -47 -10
-62 -14 -36 -162 -197 -206 -225 -19 -11 -42 -35 -51 -52 -16 -32 -111 -127
-127 -127 -4 0 -24 14 -43 30 -42 37 -58 38 -71 2 -8 -23 -21 -31 -81 -50 -68
-22 -74 -23 -97 -7 -14 9 -29 28 -35 43 -5 15 -24 39 -42 54 -29 24 -32 31
-30 80 3 82 16 108 55 108 28 0 44 -11 99 -70 76 -80 92 -84 169 -45 27 14 55
25 63 25 7 0 30 16 50 35 22 21 47 35 62 35 15 0 37 13 57 36 18 20 53 55 78
77 25 23 67 66 95 94 27 29 53 53 57 53 5 0 8 -15 8 -34z m2220 -96 c96 -97
136 -130 155 -130 15 0 38 -14 59 -35 20 -19 42 -35 51 -35 9 0 38 -11 65 -25
78 -40 99 -35 153 34 49 62 91 87 131 77 26 -6 36 -37 36 -117 0 -41 -4 -51
-26 -65 -14 -10 -34 -34 -45 -55 -30 -59 -49 -65 -131 -38 -52 17 -72 29 -79
46 -14 38 -37 39 -73 4 -17 -17 -35 -31 -40 -31 -17 0 -115 95 -127 122 -6 16
-30 42 -53 57 -41 28 -128 115 -182 180 -20 24 -29 47 -32 87 -2 30 -2 54 1
54 4 0 65 -58 137 -130z m-3022 88 c7 -7 12 -20 12 -29 0 -10 11 -26 24 -36
20 -15 23 -24 19 -57 -5 -31 -11 -40 -37 -51 -17 -7 -41 -25 -54 -40 -26 -30
-42 -29 -57 3 -5 12 -20 22 -35 24 -33 4 -39 42 -12 71 11 12 26 35 33 52 12
26 70 75 88 75 4 0 12 -5 19 -12z m3744 -13 c20 -14 40 -35 43 -47 4 -13 18
-35 32 -49 33 -35 28 -73 -9 -77 -16 -2 -30 -11 -33 -22 -10 -31 -34 -32 -63
-1 -15 16 -39 33 -54 36 -22 6 -27 13 -31 48 -3 35 0 45 19 60 13 10 24 26 24
36 0 16 18 41 30 41 3 0 22 -11 42 -25z m-2739 -56 c40 -18 42 -47 11 -113
-23 -49 -68 -98 -77 -85 -2 2 -8 16 -15 32 -11 27 -13 27 -101 27 -49 0 -93 4
-96 10 -7 11 14 33 101 104 55 45 61 48 104 43 25 -3 58 -11 73 -18z m1858
-35 c80 -60 101 -82 93 -95 -3 -5 -45 -9 -93 -9 -90 0 -111 -8 -111 -42 0 -47
-56 -2 -89 72 -35 77 -27 98 48 121 55 16 77 9 152 -47z m2742 -1 c23 -14 56
-39 72 -55 17 -16 40 -38 53 -50 12 -12 25 -38 28 -59 5 -30 10 -36 25 -32 39
11 66 -7 108 -69 36 -53 42 -69 37 -98 -9 -56 -35 -82 -97 -95 -67 -14 -90
-26 -156 -82 l-52 -44 -6 28 c-22 100 -63 158 -121 169 -64 12 -124 -30 -167
-116 l-24 -49 -37 53 c-50 72 -99 120 -146 141 -39 17 -40 20 -40 66 0 39 6
55 30 82 17 19 30 39 30 44 0 5 11 20 24 32 27 25 79 31 115 11 19 -10 23 -8
32 19 10 29 47 61 71 61 6 0 24 12 40 27 24 23 68 38 121 42 9 0 36 -11 60
-26z m-4013 -128 l0 -45 -185 0 -185 0 0 45 0 45 185 0 185 0 0 -45z m430 0
l0 -45 -185 0 -185 0 0 45 0 45 185 0 185 0 0 -45z m430 0 l0 -45 -190 0 -190
0 0 45 0 45 190 0 190 0 0 -45z m-1735 -46 c-10 -19 -37 -60 -61 -91 -61 -78
-84 -132 -84 -199 0 -171 -120 -267 -194 -154 -16 24 -18 25 -46 10 -16 -8
-34 -24 -40 -34 -5 -11 -26 -25 -45 -31 -30 -10 -41 -9 -73 7 -32 15 -37 23
-40 56 -3 33 0 38 25 48 15 6 63 9 105 7 l78 -3 0 67 c0 89 13 103 76 81 66
-22 86 -10 109 67 15 48 27 68 54 89 20 14 59 49 86 78 54 56 77 56 50 2z
m2303 -7 c31 -31 70 -66 85 -77 19 -14 35 -41 50 -84 28 -81 41 -90 105 -69
70 22 77 15 77 -81 0 -50 4 -76 10 -70 12 12 146 12 179 -1 25 -9 26 -8 26 30
0 22 -3 40 -7 40 -5 0 -26 -12 -48 -25 -22 -14 -47 -25 -57 -25 -24 0 -91 136
-83 169 l7 26 16 -23 c11 -14 33 -25 57 -29 22 -3 48 -12 57 -20 18 -16 98
-10 98 7 0 5 19 14 43 21 53 14 61 26 36 57 -24 31 -24 52 -2 52 20 0 113 -88
113 -107 0 -8 12 -13 30 -13 51 0 70 -68 25 -88 -14 -6 -25 -18 -25 -27 0 -18
-5 -18 -86 -4 -35 6 -68 17 -75 25 -6 8 -18 14 -25 14 -8 0 -14 10 -14 23 0
33 -36 34 -43 1 -2 -14 0 -24 8 -24 6 0 22 -11 35 -25 15 -16 34 -25 53 -25
21 0 30 -6 34 -21 5 -18 11 -21 44 -16 37 5 37 4 37 -27 -1 -17 2 -40 6 -52 6
-17 2 -23 -23 -34 -19 -8 -31 -20 -31 -31 0 -25 -16 -24 -51 4 -16 12 -42 32
-59 45 -16 13 -30 32 -30 42 0 11 -9 24 -20 30 -17 9 -20 8 -20 -10 0 -58 -62
-92 -123 -66 -19 8 -39 20 -43 28 -5 7 -21 21 -35 30 -25 16 -27 16 -57 -16
-38 -41 -60 -47 -101 -30 -46 19 -81 98 -81 184 0 75 -19 122 -76 195 -52 66
-84 118 -84 139 0 9 3 16 6 16 3 0 31 -26 62 -58z m-3187 17 c10 -19 17 -21
68 -15 69 8 84 -4 79 -61 -3 -33 -7 -39 -38 -49 -18 -6 -38 -21 -44 -33 -8
-18 -17 -21 -72 -21 -35 0 -65 4 -69 10 -3 5 -11 7 -18 4 -7 -2 -21 2 -31 9
-27 20 -14 84 20 99 13 6 24 14 24 18 0 15 42 60 55 60 8 0 19 -10 26 -21z
m4084 -19 c14 -22 32 -40 40 -40 17 0 21 -6 29 -46 8 -35 -16 -69 -40 -60 -7
3 -16 1 -19 -4 -4 -6 -34 -10 -69 -10 -55 0 -64 3 -72 21 -6 12 -26 27 -44 33
-37 12 -48 41 -35 93 6 24 8 25 66 18 55 -6 62 -5 75 14 22 31 41 26 69 -19z
m-2495 -110 l0 -60 -165 0 -165 0 0 60 0 60 165 0 165 0 0 -60z m390 0 l0 -60
-170 0 -170 0 0 53 c0 30 3 57 7 60 3 4 80 7 170 7 l163 0 0 -60z m380 0 l0
-60 -165 0 -165 0 0 60 0 60 165 0 165 0 0 -60z m380 0 l0 -60 -165 0 -165 0
0 60 0 60 165 0 165 0 0 -60z m-2852 -50 l53 -59 -37 -40 c-38 -43 -81 -54
-103 -27 -6 7 -29 16 -51 20 -21 3 -41 10 -44 15 -9 15 4 40 25 46 12 4 19 16
19 30 0 13 6 28 13 32 8 4 16 16 20 26 12 33 50 18 105 -43z m312 49 c0 -6
-10 -25 -22 -41 -21 -30 -21 -31 -3 -44 10 -8 29 -14 41 -14 13 0 29 -7 37
-15 24 -23 90 -30 106 -11 7 9 26 16 41 16 16 0 42 11 58 25 l30 25 6 -24 c4
-18 -5 -46 -31 -96 -36 -68 -39 -71 -67 -66 -16 4 -37 12 -45 20 -9 7 -25 16
-36 20 -19 5 -20 2 -17 -32 3 -27 -1 -44 -14 -56 -10 -10 -25 -32 -33 -49 -9
-18 -26 -37 -39 -43 -12 -6 -33 -21 -46 -33 -26 -25 -46 -27 -46 -6 0 9 -14
24 -31 33 -25 14 -29 21 -25 46 4 16 6 39 6 51 0 21 3 23 42 18 35 -5 40 -4
35 10 -6 17 11 27 46 27 12 0 37 14 55 30 37 34 43 70 12 67 -11 -1 -20 -8
-20 -17 0 -26 -50 -56 -114 -68 -77 -15 -86 -15 -86 3 0 9 -8 18 -17 22 -37
13 -41 22 -30 58 9 29 15 35 39 35 20 0 31 6 37 23 20 52 131 125 131 86z
m4035 -8 c3 -11 12 -22 20 -25 8 -3 15 -16 15 -30 0 -16 7 -27 20 -31 13 -4
20 -15 20 -31 0 -20 -6 -25 -40 -30 -22 -4 -45 -13 -51 -20 -22 -27 -68 -17
-104 24 -19 20 -35 40 -35 44 0 3 24 31 53 61 55 59 91 72 102 38z m2331 -52
c64 -28 94 -56 94 -89 0 -24 3 -27 25 -22 38 7 65 -4 125 -49 116 -87 120 -92
120 -154 0 -31 -6 -68 -14 -83 -7 -15 -16 -44 -20 -64 -4 -23 -18 -46 -35 -61
l-29 -24 19 -29 c34 -51 25 -92 -35 -158 -42 -47 -60 -60 -91 -65 -37 -6 -42
-3 -80 38 -39 43 -160 111 -197 111 -24 0 -23 17 1 25 31 10 89 81 101 123 26
97 -41 162 -168 162 l-63 0 20 29 c43 60 61 114 61 186 1 77 20 114 70 134 36
14 42 13 96 -10z m-5136 -124 l0 -75 -160 0 -160 0 0 75 0 75 160 0 160 0 0
-75z m370 0 l0 -75 -160 0 -160 0 0 75 0 75 160 0 160 0 0 -75z m370 0 l0 -75
-160 0 -160 0 0 75 0 75 160 0 160 0 0 -75z m370 0 l0 -75 -160 0 -160 0 0 75
0 75 160 0 160 0 0 -75z m375 0 l0 -70 -160 0 -160 0 -3 73 -3 72 163 -2 163
-3 0 -70z m-2921 -40 c42 -37 48 -47 42 -70 -4 -14 -17 -30 -31 -35 -14 -5
-31 -25 -39 -45 l-15 -35 -70 0 c-66 0 -73 2 -108 34 -21 18 -53 41 -70 50
-34 17 -36 22 -34 66 2 27 34 60 58 60 8 0 28 -11 45 -25 39 -33 53 -32 99 10
22 19 47 35 57 35 9 -1 39 -21 66 -45z m4152 10 c39 -41 62 -44 102 -10 17 14
37 25 46 25 27 0 56 -38 56 -73 0 -28 -6 -37 -37 -54 -21 -12 -53 -35 -72 -52
-31 -28 -41 -31 -103 -31 l-68 0 -17 37 c-10 21 -27 39 -38 42 -25 4 -35 19
-35 53 0 17 6 29 18 32 10 4 31 20 47 36 37 39 60 38 101 -5z m-2959 -95 l53
0 0 -70 0 -70 -160 0 -160 0 0 77 0 76 107 -6 c58 -4 130 -7 160 -7z m1903
-65 l0 -75 -160 0 -160 0 0 70 0 69 103 4 c56 1 128 4 160 5 l57 2 0 -75z
m-1480 -5 l0 -70 -160 0 -160 0 0 70 0 70 160 0 160 0 0 -70z m370 0 l0 -70
-160 0 -160 0 0 70 0 70 160 0 160 0 0 -70z m370 0 l0 -70 -160 0 -160 0 0 70
0 70 160 0 160 0 0 -70z m370 0 l0 -70 -160 0 -160 0 0 70 0 70 160 0 160 0 0
-70z m-2170 17 c0 -13 9 -32 20 -42 11 -10 20 -28 20 -40 0 -19 -7 -23 -41
-28 -22 -3 -49 -13 -60 -23 -19 -17 -21 -16 -54 20 -18 20 -32 43 -29 49 7 19
105 87 125 87 13 0 19 -7 19 -23z m3010 -17 c64 -50 64 -53 25 -95 -34 -35
-37 -36 -54 -21 -10 9 -38 20 -61 24 -24 4 -45 12 -47 18 -2 6 8 25 22 42 14
16 25 40 25 52 0 19 4 21 27 15 15 -3 43 -19 63 -35z m-3520 1 c0 -10 11 -28
25 -41 19 -18 25 -34 25 -66 0 -41 -3 -45 -54 -78 -64 -43 -121 -49 -152 -15
-15 17 -26 20 -56 15 -30 -5 -45 -1 -82 25 -26 17 -46 36 -46 44 0 7 -7 26
-15 41 -19 36 -19 48 0 64 20 17 48 5 96 -41 34 -33 47 -39 84 -39 60 0 69 5
115 66 40 53 60 61 60 25z m4003 -31 l47 -60 55 0 c50 0 57 3 92 39 46 46 79
59 99 39 12 -12 11 -22 -5 -68 -24 -69 -85 -114 -139 -105 -24 5 -39 1 -59
-14 -41 -33 -94 -28 -153 15 -47 33 -50 39 -50 78 0 32 6 50 25 70 14 15 25
36 25 47 0 31 14 22 63 -41z m-3711 23 c8 -10 20 -31 27 -48 10 -24 10 -31 -2
-40 -8 -5 -17 -20 -21 -32 -4 -12 -25 -38 -46 -57 -53 -47 -82 -46 -137 3 -49
44 -54 61 -19 61 14 0 28 5 31 10 3 6 15 10 27 10 11 0 22 8 25 19 3 11 16 22
29 25 13 4 31 20 39 36 18 35 26 37 47 13z m3403 -12 c8 -16 24 -32 35 -36 11
-3 25 -15 30 -26 6 -10 19 -19 30 -19 10 0 22 -4 25 -10 3 -5 17 -10 31 -10
29 0 33 -26 4 -35 -11 -3 -29 -19 -40 -36 -32 -45 -76 -40 -128 13 -23 23 -42
46 -42 52 0 5 -7 17 -16 27 -14 15 -14 20 1 55 25 61 47 69 70 25z m-3284
-122 c20 -29 21 -35 10 -83 -9 -41 -22 -62 -56 -96 -42 -41 -46 -43 -70 -30
-36 19 -68 74 -60 102 10 31 115 138 137 138 9 0 27 -14 39 -31z m3232 -28
c70 -73 75 -107 25 -158 -18 -18 -37 -33 -42 -33 -6 1 -28 16 -48 34 -37 32
-68 97 -68 141 0 29 36 75 59 75 10 0 43 -27 74 -59z m-2593 -36 l0 -75 -150
0 -150 0 0 75 0 75 150 0 150 0 0 -75z m360 0 l0 -75 -155 0 -155 0 0 75 0 75
155 0 155 0 0 -75z m350 0 l0 -75 -150 0 -150 0 0 75 0 75 150 0 150 0 0 -75z
m360 0 l0 -75 -155 0 -155 0 0 75 0 75 155 0 155 0 0 -75z m350 0 l0 -75 -150
0 -150 0 0 75 0 75 150 0 150 0 0 -75z m360 0 l0 -75 -155 0 -155 0 0 75 0 75
155 0 155 0 0 -75z m350 0 l0 -75 -150 0 -150 0 0 75 0 75 150 0 150 0 0 -75z
m-3058 -7 c6 -16 15 -28 21 -28 37 -1 39 -17 9 -83 -34 -74 -58 -92 -139 -103
-50 -6 -52 -5 -96 35 -40 37 -49 41 -80 36 -41 -8 -79 20 -114 83 -20 35 -21
41 -8 52 13 11 25 9 67 -11 39 -18 68 -24 121 -24 62 0 71 3 86 24 9 13 26 34
38 47 19 21 24 22 53 11 21 -8 36 -22 42 -39z m3805 6 c35 -42 44 -47 92 -52
42 -4 66 1 122 23 50 21 73 25 81 17 17 -17 1 -58 -42 -103 -36 -38 -43 -41
-76 -36 -34 6 -42 2 -82 -34 -43 -40 -45 -41 -96 -34 -77 10 -98 24 -133 90
-38 71 -40 82 -13 90 11 4 26 18 33 31 11 22 48 50 68 53 4 1 24 -20 46 -45z
m1033 -79 c39 -6 49 -13 75 -52 90 -134 110 -178 97 -220 -9 -31 -8 -33 23
-43 42 -14 58 -34 79 -97 20 -64 20 -86 1 -124 -26 -49 -66 -68 -126 -57 -60
11 -131 -2 -205 -36 l-51 -23 5 76 c3 66 1 82 -20 121 -49 91 -156 91 -250 0
-49 -48 -58 -50 -58 -18 0 58 -68 196 -119 242 -14 13 -19 26 -15 40 15 55 29
78 63 98 20 12 45 31 56 41 43 41 98 39 143 -6 l23 -24 34 34 c25 25 42 33 68
33 19 0 48 7 63 15 16 9 38 13 49 11 11 -3 40 -8 65 -11z m-4643 -102 c19 -29
10 -67 -22 -97 -14 -13 -25 -34 -25 -48 0 -40 -18 -48 -104 -48 -68 0 -89 4
-133 27 -81 40 -69 69 42 96 39 9 54 19 72 47 54 85 46 80 104 62 29 -10 58
-26 66 -39z m733 -28 l0 -85 -195 0 -195 0 0 85 0 85 195 0 195 0 0 -85z m440
0 l0 -85 -192 2 -193 3 -3 83 -3 82 196 0 195 0 0 -85z m448 3 l-3 -83 -195 0
-195 0 -3 83 -3 82 201 0 201 0 -3 -82z m442 -3 l0 -85 -195 0 -195 0 0 85 0
85 195 0 195 0 0 -85z m448 3 l-3 -83 -195 0 -195 0 -3 83 -3 82 201 0 201 0
-3 -82z m442 -3 l0 -85 -195 0 -195 0 0 85 0 85 195 0 195 0 0 -85z m506 31
c12 -38 46 -65 98 -76 60 -13 91 -33 83 -54 -3 -8 -29 -27 -56 -41 -41 -20
-65 -25 -129 -25 -83 0 -102 9 -102 47 0 12 -8 30 -19 40 -66 64 -51 119 40
147 49 14 72 4 85 -38z m-3847 -40 c19 -15 40 -67 34 -83 -8 -20 -58 11 -88
54 -18 28 -21 39 -12 45 14 9 45 1 66 -16z m4147 10 c12 -31 -85 -123 -101
-96 -15 24 22 85 60 101 29 11 35 11 41 -5z m-3176 -221 l0 -85 -180 0 -180 0
0 85 0 85 180 0 180 0 0 -85z m420 0 l0 -85 -182 2 -183 3 -3 69 c-2 38 -1 75
2 83 4 10 44 13 186 13 l180 0 0 -85z m410 0 l0 -85 -180 0 -180 0 0 85 0 85
180 0 180 0 0 -85z m410 0 l0 -85 -180 0 -180 0 0 85 0 85 180 0 180 0 0 -85z
m418 -3 l3 -82 -183 2 -183 3 -3 69 c-2 38 -1 75 2 83 5 11 40 13 183 11 l178
-3 3 -83z m412 3 l0 -85 -180 0 -180 0 0 85 0 85 180 0 180 0 0 -85z m410 0
l0 -85 -180 0 -180 0 0 85 0 85 180 0 180 0 0 -85z m-3088 34 c12 -18 17 -20
35 -10 12 6 53 11 92 11 l71 0 0 -56 0 -57 -79 7 c-44 3 -107 15 -142 26 -34
11 -68 20 -75 20 -25 0 -104 42 -98 52 3 5 28 6 59 3 41 -6 59 -3 77 9 30 21
43 20 60 -5z m3413 5 c19 -13 38 -15 79 -10 30 4 57 3 60 -2 5 -9 -75 -52 -98
-52 -7 0 -40 -9 -73 -19 -69 -22 -182 -36 -218 -27 -22 6 -25 12 -25 51 0 24
5 47 12 51 17 10 149 4 172 -8 16 -9 23 -7 34 11 17 25 25 26 57 5z m2096
-135 c69 -48 79 -61 79 -99 0 -36 1 -38 41 -43 33 -4 53 -17 100 -64 32 -32
71 -76 87 -98 25 -36 27 -45 21 -98 -4 -37 -15 -70 -33 -95 -14 -21 -26 -45
-26 -54 0 -17 -63 -78 -81 -78 -5 0 -2 -11 7 -25 9 -14 17 -44 18 -66 1 -34
-4 -45 -30 -67 -18 -15 -49 -42 -69 -59 -32 -27 -46 -33 -86 -33 -45 0 -48 2
-72 43 -34 57 -94 111 -162 144 -53 26 -69 43 -42 43 7 0 35 16 64 35 133 89
114 234 -37 279 -29 9 -64 16 -77 16 -22 0 -20 4 23 63 54 73 62 90 78 177 11
57 17 68 47 88 42 29 100 26 150 -9z m-4726 -210 c32 -28 39 -30 61 -20 57 25
124 -2 124 -51 0 -12 12 -21 38 -28 22 -5 46 -18 55 -28 23 -25 32 -78 18 -96
-10 -12 -9 -27 5 -70 17 -54 17 -58 -2 -103 -39 -94 -150 -147 -304 -146 -137
1 -212 32 -470 192 -246 152 -363 205 -483 220 l-52 6 36 27 c90 69 207 92
319 64 36 -9 110 -37 165 -63 263 -121 330 -138 388 -100 33 22 26 47 -14 47
-38 0 -69 32 -69 71 0 41 15 66 53 89 48 29 90 26 132 -11z m793 -69 c25 -15
37 -18 52 -10 27 14 86 12 118 -4 47 -25 74 -62 79 -110 4 -33 12 -50 28 -60
75 -49 45 -196 -58 -279 -102 -84 -208 -108 -353 -83 -77 13 -342 87 -366 103
-5 2 6 24 24 49 25 35 33 57 36 102 l4 58 87 -18 c122 -25 190 -24 232 5 49
33 44 51 -14 55 -52 3 -71 22 -83 78 -7 38 32 89 91 115 52 24 82 24 123 -1z
m2031 -99 c58 -34 96 -104 87 -156 -8 -40 -55 -99 -97 -121 -48 -24 -136 -27
-284 -9 -77 10 -141 18 -141 19 -1 0 -3 24 -6 51 l-5 50 123 0 c120 0 124 1
150 26 30 31 24 53 -13 46 -34 -6 -48 24 -29 61 39 75 124 89 215 33z m-649 0
c14 -10 32 -33 41 -51 9 -19 29 -38 47 -46 66 -27 92 -126 53 -202 -24 -47
-45 -66 -106 -94 -43 -19 -65 -22 -155 -20 -58 1 -145 10 -195 20 -79 16 -90
20 -87 37 2 11 6 43 9 72 l5 51 99 4 c91 3 101 5 125 29 32 32 25 49 -21 49
-21 0 -35 6 -39 16 -42 108 122 207 224 135z m-731 -27 c20 -14 28 -15 61 -4
42 14 78 8 117 -17 28 -18 58 -78 47 -94 -3 -6 10 -26 30 -45 32 -31 36 -40
36 -88 0 -118 -128 -233 -280 -251 -68 -8 -200 13 -351 57 l-108 31 35 28 c41
32 91 92 99 120 6 16 14 18 84 12 70 -5 83 -3 120 17 58 33 56 60 -3 60 -35 0
-48 5 -60 22 -26 37 -20 80 17 115 54 53 113 67 156 37z"/>
<path d="M9508 16549 c-681 -48 -1327 -324 -1737 -739 -202 -205 -342 -429
-436 -700 -31 -90 -36 -115 -33 -176 3 -62 8 -78 41 -127 138 -209 582 -351
845 -271 177 53 215 231 81 378 -53 58 -141 105 -162 87 -7 -5 -32 -50 -57
-100 -42 -86 -64 -109 -76 -77 -3 8 18 60 47 117 251 502 705 789 1399 885
160 23 655 26 800 6 543 -76 932 -291 1261 -698 90 -111 182 -253 175 -270
-10 -26 -29 -11 -84 69 -49 71 -56 77 -80 71 -83 -20 -160 -83 -198 -160 -22
-45 -26 -64 -22 -113 10 -145 147 -232 363 -234 350 -3 696 220 695 446 -1 79
-69 283 -145 431 -223 432 -673 794 -1245 999 -414 149 -930 212 -1432 176z
m432 -203 c0 -23 -4 -25 -42 -23 l-43 2 -3 -127 c-2 -120 -4 -128 -22 -128
-19 0 -20 7 -20 130 l0 130 -40 0 c-33 0 -40 3 -40 20 0 19 7 20 105 20 105 0
105 0 105 -24z m-355 -118 c3 -73 9 -141 11 -150 4 -14 -1 -18 -19 -18 -19 0
-37 20 -92 100 -38 55 -70 100 -73 100 -2 0 -1 -47 3 -105 7 -101 7 -105 -13
-105 -19 0 -21 9 -27 118 -12 186 -12 177 10 177 13 0 42 -32 93 -105 l73
-105 -7 113 c-7 108 -6 112 13 112 20 0 21 -8 28 -132z m609 70 c52 -182 69
-248 64 -253 -13 -13 -38 10 -51 48 -13 41 -14 42 -66 45 l-52 3 -16 -40 c-12
-32 -21 -41 -39 -41 l-23 0 35 83 c20 45 47 110 62 145 21 50 30 62 48 62 19
0 25 -9 38 -52z m-1000 -135 c42 -68 76 -127 76 -133 0 -5 -9 -10 -19 -10 -13
0 -28 15 -42 40 -13 23 -29 38 -35 36 -7 -3 -29 -8 -49 -12 -39 -7 -40 -9 -49
-65 -5 -25 -13 -38 -26 -42 -11 -3 -20 -2 -20 2 0 11 29 242 35 278 5 29 31
48 46 34 4 -3 41 -61 83 -128z m1436 107 c77 -20 104 -84 55 -130 -22 -21 -23
-25 -10 -44 22 -30 18 -61 -11 -95 -17 -21 -35 -31 -52 -31 -28 0 -130 25
-139 34 -5 5 54 261 65 279 4 8 16 7 92 -13z m-1746 -188 c25 -74 46 -135 46
-137 0 -1 -8 -5 -18 -7 -13 -4 -49 20 -113 73 -51 43 -95 76 -97 75 -1 -2 12
-46 30 -99 18 -53 30 -99 26 -103 -19 -19 -40 17 -81 140 -43 128 -44 136 -26
141 14 5 43 -14 110 -70 49 -43 92 -75 94 -73 3 2 -9 46 -26 97 -26 76 -29 95
-18 102 8 4 17 5 20 1 4 -4 28 -67 53 -140z m2056 83 c0 -9 -7 -32 -15 -52 -8
-19 -15 -41 -15 -47 0 -14 105 -50 119 -42 5 3 12 17 15 30 16 64 25 77 45 67
17 -10 16 -18 -33 -151 -28 -77 -53 -140 -56 -140 -3 0 -11 4 -19 9 -12 8 -11
18 7 66 12 31 22 60 22 65 0 11 -118 51 -124 42 -2 -4 -11 -31 -20 -59 -19
-58 -26 -66 -46 -53 -20 12 78 280 103 280 9 0 17 -7 17 -15z m-2429 -216 c63
-56 116 -103 117 -105 2 -1 -5 -7 -17 -13 -17 -9 -26 -6 -55 19 l-34 31 -46
-22 -45 -23 2 -50 c2 -39 -2 -51 -14 -54 -22 -4 -69 296 -48 309 8 5 17 9 20
9 4 0 58 -46 120 -101z m2848 32 c13 -8 11 -31 -12 -162 -14 -83 -29 -154 -32
-157 -3 -3 -12 1 -21 9 -12 12 -13 24 -5 57 l9 42 -42 25 c-24 14 -47 25 -51
25 -5 0 -23 -14 -40 -30 -27 -26 -34 -28 -48 -17 -16 11 -5 23 100 114 65 56
120 102 123 103 3 0 11 -4 19 -9z m-3224 -247 c99 -132 98 -129 81 -143 -11
-10 -31 10 -104 106 -68 88 -88 121 -80 130 6 7 13 13 17 13 3 0 42 -48 86
-106z m3446 10 c-23 -26 -39 -49 -37 -52 3 -2 42 1 87 7 73 10 85 9 108 -6
l26 -18 -75 -8 c-41 -5 -80 -10 -86 -12 -6 -2 -16 -48 -23 -104 -7 -56 -17
-101 -21 -101 -4 0 -13 7 -20 15 -12 15 -12 34 6 143 6 39 5 42 -17 42 -14 0
-40 -16 -64 -40 -28 -27 -44 -37 -54 -31 -17 11 -15 13 98 144 74 86 86 96 99
83 13 -13 10 -20 -27 -62z m-3686 -116 c37 -17 58 -60 45 -93 -7 -18 -7 -24 0
-20 14 8 150 -14 150 -25 0 -4 -7 -13 -15 -20 -11 -9 -29 -10 -80 -1 -67 12
-89 8 -115 -24 -12 -14 -7 -22 36 -60 38 -34 46 -46 37 -56 -15 -15 -15 -14
-146 96 l-95 79 42 52 c41 51 80 83 103 84 7 0 24 -5 38 -12z m4080 -245 c16
-27 17 -35 6 -45 -10 -11 -16 -9 -27 7 -40 59 -30 60 -142 -11 -94 -59 -132
-72 -132 -45 0 5 42 35 93 67 127 79 124 75 98 117 -21 34 -21 36 -4 45 18 10
36 -12 108 -135z m-4356 -82 c12 -8 12 -15 -2 -49 l-16 -39 115 -43 c63 -24
117 -47 119 -51 3 -4 3 -14 0 -22 -5 -11 -28 -6 -118 29 -62 24 -117 43 -122
44 -6 0 -17 -16 -24 -35 -12 -33 -33 -46 -45 -27 -6 9 65 202 74 202 3 0 11
-4 19 -9z m4465 -210 c-10 -9 -248 -61 -277 -61 -10 0 -17 8 -17 18 0 15 24
23 143 48 120 26 143 28 151 16 4 -8 4 -17 0 -21z"/>
<path d="M10131 16246 c-11 -27 -21 -52 -21 -57 0 -5 16 -9 35 -9 39 0 41 5
21 70 l-13 45 -22 -49z"/>
<path d="M9096 16203 c-3 -21 -6 -49 -6 -62 0 -21 3 -23 32 -17 17 3 33 8 36
10 2 2 -10 27 -26 56 l-29 51 -7 -38z"/>
<path d="M10567 16233 c-2 -4 -8 -22 -11 -39 -6 -27 -4 -32 16 -38 37 -9 73
-7 86 6 17 17 15 46 -5 56 -28 15 -81 24 -86 15z"/>
<path d="M10537 16113 c-3 -4 -8 -25 -12 -45 -7 -36 -6 -37 32 -47 51 -15 57
-14 77 8 20 22 14 56 -12 70 -27 14 -80 23 -85 14z"/>
<path d="M8404 15973 c3 -16 8 -44 12 -65 l6 -36 34 20 c19 11 34 21 34 22 0
2 -21 22 -46 45 -45 41 -46 41 -40 14z"/>
<path d="M11275 15890 c-22 -21 -37 -41 -35 -43 3 -3 19 -12 36 -20 l32 -16 7
46 c4 25 9 52 12 59 9 24 -11 14 -52 -26z"/>
<path d="M7839 15590 c-9 -5 -28 -25 -43 -45 l-27 -35 33 -30 33 -30 32 38
c36 41 42 78 16 98 -21 16 -23 16 -44 4z"/>
<path d="M7140 14924 c-204 -30 -423 -102 -563 -185 l-72 -44 105 -12 c155
-18 258 -41 318 -69 56 -27 64 -39 31 -49 -43 -14 -202 -130 -273 -198 -68
-67 -171 -195 -163 -203 2 -2 46 16 98 40 256 119 538 181 929 206 290 18 432
30 490 44 l55 12 -120 7 c-362 19 -679 209 -720 430 -4 20 -10 37 -14 36 -3
-1 -49 -7 -101 -15z"/>
<path d="M12370 14905 c0 -52 -42 -136 -98 -197 -130 -140 -339 -234 -567
-255 l-80 -7 49 -7 c27 -4 137 -13 245 -19 523 -29 776 -79 1079 -213 56 -25
102 -41 102 -37 0 18 -120 158 -192 225 -42 39 -117 95 -167 125 -49 30 -90
59 -91 63 0 14 102 56 176 71 39 8 121 20 182 27 102 11 110 14 91 27 -47 33
-202 103 -301 136 -115 38 -332 86 -392 86 -32 0 -36 -3 -36 -25z"/>
<path d="M9732 13580 c-71 -25 -136 -64 -189 -113 -56 -51 -57 -86 -7 -169 20
-33 42 -81 48 -106 8 -29 19 -48 28 -50 41 -8 24 88 -31 178 -17 28 -31 59
-31 69 0 35 108 114 199 146 42 15 46 14 98 -10 77 -35 173 -105 173 -125 0
-10 -18 -56 -40 -102 -22 -46 -43 -101 -47 -122 -5 -35 -4 -38 17 -34 17 2 26
13 35 43 6 22 28 73 48 112 38 74 45 110 27 143 -18 34 -228 161 -265 160 -5
-1 -34 -9 -63 -20z"/>
<path d="M9765 13418 c-3 -8 -4 -61 -3 -119 3 -96 4 -104 23 -104 19 0 20 7
20 115 0 101 -2 115 -18 118 -9 2 -19 -3 -22 -10z"/>
<path d="M5731 11854 c-23 -30 -38 -54 -32 -54 5 0 12 4 15 9 14 22 135 44
246 43 l115 0 -95 22 c-52 13 -120 25 -151 28 l-56 6 -42 -54z"/>
<path d="M5000 7797 c0 -3 17 -16 38 -28 20 -13 56 -41 80 -63 26 -23 42 -33
42 -24 0 14 -47 52 -122 97 -21 12 -38 20 -38 18z"/>
<path d="M5300 7109 c30 -16 64 -38 75 -48 36 -32 49 -36 36 -12 -7 12 -43 37
-81 56 -85 43 -105 46 -30 4z"/>
<path d="M5682 6445 c36 -19 69 -39 73 -45 3 -5 11 -10 16 -10 24 0 -26 49
-64 63 -82 30 -91 27 -25 -8z"/>
<path d="M5648 6223 c7 -3 16 -2 19 1 4 3 -2 6 -13 5 -11 0 -14 -3 -6 -6z"/>
<path d="M5778 6193 c7 -3 16 -2 19 1 4 3 -2 6 -13 5 -11 0 -14 -3 -6 -6z"/>
<path d="M5895 6150 c33 -17 66 -37 74 -43 12 -10 13 -9 2 11 -13 24 -53 46
-107 57 -19 4 -9 -5 31 -25z"/>
<path d="M5908 5913 c7 -3 16 -2 19 1 4 3 -2 6 -13 5 -11 0 -14 -3 -6 -6z"/>
<path d="M6100 5878 c3 -3 28 -15 55 -27 48 -20 49 -20 26 -1 -13 11 -29 20
-36 20 -7 0 -22 3 -32 7 -10 3 -16 4 -13 1z"/>
<path d="M6188 5623 c12 -2 30 -2 40 0 9 3 -1 5 -23 4 -22 0 -30 -2 -17 -4z"/>
<path d="M6288 5613 c6 -2 18 -2 25 0 6 3 1 5 -13 5 -14 0 -19 -2 -12 -5z"/>
<path d="M6380 5591 c30 -11 56 -18 58 -17 8 9 -30 26 -68 31 l-45 6 55 -20z"/>
<path d="M7028 4406 c-104 -37 -204 -125 -271 -237 -52 -87 -71 -158 -72 -255
0 -73 3 -88 35 -150 32 -63 43 -74 140 -143 124 -88 281 -243 329 -325 75
-126 96 -252 63 -371 -10 -38 -23 -79 -27 -89 -7 -17 -5 -18 20 -12 57 14 198
92 281 154 87 66 169 157 204 227 l20 40 -63 30 c-35 17 -122 57 -193 90 -246
114 -464 244 -464 278 0 29 29 19 124 -41 132 -85 198 -120 421 -222 227 -104
344 -147 530 -195 323 -83 661 -136 1090 -171 260 -22 946 -25 1195 -6 501 39
914 105 1244 202 169 50 222 70 441 170 207 94 270 128 413 217 95 61 140 74
130 40 -13 -39 -318 -210 -600 -337 -65 -29 -118 -55 -118 -59 0 -14 61 -109
96 -150 81 -93 249 -208 382 -260 28 -11 52 -20 52 -18 0 1 -10 27 -22 57 -18
45 -22 75 -22 165 0 96 3 118 26 171 55 130 166 260 323 375 125 92 163 127
189 172 85 147 31 375 -127 532 -94 94 -164 129 -267 133 -73 3 -80 2 -265
-71 -681 -267 -1280 -426 -1856 -493 -183 -21 -824 -30 -1041 -15 -558 40
-1101 177 -1941 492 -208 78 -245 89 -300 89 -34 -1 -78 -7 -99 -14z m5378
-396 l185 -160 -36 -17 -35 -17 -38 35 c-69 65 -62 64 -151 19 -70 -35 -81
-43 -77 -63 3 -12 7 -45 11 -73 5 -50 4 -52 -25 -64 -17 -7 -32 -11 -34 -9 -2
2 -13 101 -25 219 -12 118 -24 225 -26 237 -4 17 2 26 22 37 16 8 32 15 36 16
4 0 91 -72 193 -160z m-4938 123 c21 -18 21 -19 -63 -168 -93 -167 -127 -205
-180 -205 -80 0 -153 69 -141 133 10 54 27 70 59 58 24 -9 26 -13 16 -35 -25
-55 23 -112 74 -89 14 7 51 62 101 154 104 190 98 183 134 152z m504 -203 c78
-28 149 -53 156 -55 10 -4 10 -11 -2 -34 l-15 -29 -103 38 c-159 58 -142 59
-163 -10 -10 -33 -16 -62 -14 -64 2 -2 55 -20 117 -40 61 -21 112 -40 112 -42
0 -5 -20 -45 -25 -52 -2 -2 -161 51 -216 73 -14 5 -21 -7 -39 -60 -12 -36 -20
-68 -18 -70 2 -2 55 -22 118 -44 63 -23 121 -43 127 -46 10 -3 10 -10 1 -30
-6 -14 -14 -25 -17 -25 -10 0 -299 97 -310 104 -10 6 132 436 144 436 2 0 68
-23 147 -50z m3827 -177 c39 -115 73 -212 74 -217 1 -5 -12 -14 -29 -22 -30
-12 -32 -11 -188 108 -87 66 -160 118 -162 115 -2 -2 18 -69 46 -149 27 -80
50 -150 50 -156 0 -10 -49 -26 -57 -18 -3 2 -37 99 -77 215 l-73 211 33 10
c32 11 36 9 191 -109 86 -66 158 -119 160 -117 2 1 -20 69 -47 151 -28 82 -50
152 -50 156 0 6 38 27 51 28 3 1 38 -92 78 -206z m-3237 17 c35 -10 37 -13 43
-63 3 -29 14 -116 23 -195 l17 -142 72 122 c132 225 126 218 168 208 20 -5 39
-10 41 -13 4 -4 -84 -438 -90 -444 -8 -8 -61 17 -59 28 1 8 16 79 33 158 17
79 29 146 27 148 -2 2 -44 -62 -92 -142 -49 -80 -91 -148 -94 -150 -4 -2 -18
-1 -32 2 -26 5 -27 6 -44 156 -26 236 -26 235 -66 47 l-35 -165 -28 2 c-16 1
-30 4 -33 6 -2 3 16 101 41 219 25 117 46 217 46 221 0 10 18 9 62 -3z m2501
-242 c69 -108 122 -199 119 -202 -3 -4 -20 -6 -39 -6 -29 0 -37 6 -61 46 -46
78 -37 74 -132 58 -47 -9 -87 -17 -89 -20 -2 -2 -9 -34 -15 -71 -11 -66 -12
-67 -46 -74 -19 -4 -36 -7 -37 -6 0 1 20 110 46 242 l46 240 30 6 c17 3 35 1
41 -5 7 -6 68 -100 137 -208z m-1528 106 c40 -14 70 -49 76 -89 5 -33 -11 -78
-33 -93 -19 -14 -19 -15 10 -46 16 -17 32 -43 35 -57 16 -65 -38 -142 -109
-155 -19 -3 -82 -3 -141 1 l-105 7 6 77 c3 42 9 145 12 229 l7 153 101 -6 c56
-3 119 -13 141 -21z m771 16 c41 -14 74 -67 74 -118 0 -32 -7 -49 -31 -77 -17
-19 -37 -35 -45 -35 -21 0 -17 -8 25 -53 22 -23 57 -65 80 -94 43 -55 40 -63
-17 -63 -21 0 -36 13 -71 60 -71 98 -102 120 -168 120 l-56 0 7 -99 c7 -105 5
-111 -43 -111 -16 0 -20 25 -38 228 -11 125 -19 228 -19 229 2 3 179 20 227
22 25 0 59 -4 75 -9z"/>
<path d="M12225 4044 c4 -27 10 -72 13 -100 l7 -52 62 32 62 31 -75 69 -75 68
6 -48z"/>
<path d="M10887 3572 c-9 -53 -15 -98 -13 -100 5 -4 117 16 123 22 2 2 -18 42
-45 89 l-48 85 -17 -96z"/>
<path d="M9357 3533 c-2 -32 -3 -60 -1 -62 7 -8 122 -14 147 -7 32 8 53 56 37
86 -15 28 -50 40 -119 40 l-59 0 -5 -57z"/>
<path d="M9350 3368 c0 -18 -3 -49 -6 -69 l-6 -36 70 -7 c91 -9 121 -1 137 37
29 70 -15 107 -131 107 l-64 0 0 -32z"/>
<path d="M10131 3593 l-54 -4 6 -66 c4 -36 9 -68 11 -71 3 -2 41 -1 85 3 57 5
88 13 106 27 32 25 33 70 3 98 -22 20 -32 21 -157 13z"/>
<path d="M9160 12851 c0 -10 27 -44 60 -75 72 -66 150 -94 270 -98 69 -3 75
-1 75 17 0 18 -11 21 -96 32 -121 15 -156 29 -223 93 -55 52 -86 63 -86 31z"/>
<path d="M10370 12825 c-61 -62 -111 -84 -226 -98 -88 -11 -99 -14 -99 -32 0
-18 6 -20 70 -18 79 3 155 18 199 41 45 22 136 112 136 133 0 32 -34 21 -80
-26z"/>
<path d="M9734 12806 c-28 -28 -34 -41 -34 -77 1 -85 75 -133 149 -95 33 17
51 54 51 102 0 49 -54 104 -100 104 -23 0 -41 -9 -66 -34z"/>
<path d="M9199 12654 c-12 -15 -8 -22 31 -56 81 -70 138 -91 261 -96 125 -5
159 1 159 27 0 17 -11 19 -127 23 -142 4 -182 16 -260 83 -48 40 -46 40 -64
19z"/>
<path d="M10346 12635 c-74 -66 -116 -79 -258 -83 -117 -4 -128 -6 -128 -23 0
-26 34 -32 159 -27 123 5 180 26 261 96 39 34 43 41 31 56 -18 21 -20 21 -65
-19z"/>
<path d="M8803 11535 c-3 -9 -1 -21 4 -26 5 -5 107 -8 249 -7 231 3 239 4 239
23 0 19 -8 20 -243 23 -214 2 -243 0 -249 -13z"/>
<path d="M10284 11535 c-13 -32 6 -35 246 -35 193 0 239 3 243 14 13 32 -15
36 -250 36 -195 0 -235 -2 -239 -15z"/>
<path d="M9698 12211 c-70 -23 -113 -49 -159 -98 -71 -75 -69 -67 -69 -290 0
-196 1 -203 20 -203 19 0 20 7 20 188 l0 189 29 44 c32 48 62 73 131 110 39
21 59 24 150 24 101 0 108 -1 168 -34 35 -19 82 -55 104 -80 l41 -46 -7 -192
-6 -193 25 0 25 0 0 206 0 206 -32 37 c-112 129 -285 181 -440 132z"/>
<path d="M9630 11220 c-25 -10 -57 -19 -72 -19 -24 -1 -28 -5 -28 -31 0 -28
-2 -30 -40 -30 -29 0 -40 -4 -40 -15 0 -9 -9 -28 -21 -44 -11 -15 -23 -47 -26
-69 -5 -36 -9 -42 -29 -42 -20 0 -24 -5 -24 -28 0 -23 -6 -30 -35 -40 -42 -16
-81 -60 -96 -112 -10 -32 -17 -40 -36 -40 -23 0 -23 -2 -23 -105 0 -98 1 -105
20 -105 18 0 20 7 20 80 0 78 1 80 24 80 20 0 25 6 30 44 11 68 68 126 126
126 15 0 20 6 20 25 0 20 5 25 26 25 24 0 26 3 21 29 -14 66 36 141 94 141 25
0 29 4 29 29 0 25 6 31 56 50 31 11 64 21 74 21 11 0 19 9 22 25 5 22 2 25
-21 24 -14 0 -46 -9 -71 -19z"/>
<path d="M9842 11218 c2 -14 11 -24 23 -26 11 -2 46 -13 78 -24 51 -19 57 -23
57 -49 0 -26 3 -29 35 -29 24 0 35 -5 35 -15 0 -8 7 -15 15 -15 22 0 35 -33
35 -89 0 -48 2 -51 25 -51 19 0 25 -5 25 -22 0 -18 10 -26 47 -38 55 -18 84
-53 92 -112 5 -35 10 -44 29 -46 21 -3 22 -8 22 -83 0 -78 0 -79 25 -79 l25 0
0 105 c0 105 0 105 -25 105 -19 0 -26 7 -34 35 -14 52 -47 92 -91 111 -33 15
-40 23 -40 46 0 23 -4 28 -24 28 -20 0 -24 6 -30 38 -3 22 -14 50 -25 63 -10
13 -20 33 -22 44 -3 15 -14 21 -42 23 -34 3 -37 6 -37 33 0 25 -4 29 -27 29
-16 0 -52 9 -81 20 -71 27 -94 26 -90 -2z"/>
<path d="M9222 11104 c-41 -29 -23 -84 28 -84 31 0 50 17 50 45 0 44 -42 65
-78 39z"/>
<path d="M10302 11104 c-41 -29 -23 -84 28 -84 32 0 50 17 50 46 0 20 -32 54
-50 54 -3 0 -16 -7 -28 -16z"/>
<path d="M9729 10981 c-16 -16 -29 -39 -29 -50 0 -13 -11 -26 -30 -36 -31 -16
-38 -32 -42 -99 -3 -37 -6 -40 -46 -54 -54 -18 -103 -66 -121 -118 -7 -21 -15
-103 -18 -181 l-6 -143 26 0 25 0 4 148 c3 115 8 154 21 180 21 39 68 70 120
78 37 7 37 7 37 55 0 68 14 99 45 99 21 0 25 5 25 28 0 37 26 72 54 72 30 0
42 -15 51 -62 6 -30 12 -37 34 -40 21 -2 26 -9 29 -33 9 -109 10 -112 50 -119
54 -9 96 -38 117 -82 15 -31 20 -68 23 -181 l4 -143 26 0 25 0 -6 138 c-6 153
-16 197 -54 242 -26 32 -91 70 -118 70 -11 0 -15 11 -15 45 0 56 -17 94 -47
101 -13 4 -23 12 -23 20 0 27 -25 66 -51 80 -43 22 -77 17 -110 -15z"/>
<path d="M9738 8871 c-74 -24 -128 -96 -128 -171 0 -47 19 -99 45 -120 17 -14
10 -15 -71 -20 l-89 -5 -3 -43 c-2 -24 2 -50 8 -57 17 -21 40 -6 40 26 l0 29
69 0 68 0 7 -46 c15 -111 10 -132 -43 -190 -108 -118 -131 -304 -56 -454 27
-53 95 -119 143 -139 24 -10 32 -20 32 -38 0 -23 -3 -25 -32 -19 -84 17 -181
112 -215 211 -20 59 -22 184 -4 266 6 31 28 83 47 115 53 88 29 116 -32 37
-51 -67 -69 -140 -69 -283 0 -121 1 -128 32 -190 38 -78 100 -143 168 -178 58
-29 175 -41 241 -23 155 42 256 219 241 420 -11 135 -78 303 -124 309 -17 3
-23 -2 -23 -17 0 -11 5 -23 11 -27 19 -12 66 -126 79 -191 7 -35 11 -100 8
-145 -9 -167 -92 -279 -230 -312 -26 -6 -28 -4 -28 22 0 25 6 30 38 40 58 17
117 75 153 147 75 153 47 350 -65 459 l-46 44 0 91 0 91 70 0 70 0 0 -30 c0
-23 4 -30 20 -30 18 0 20 7 20 55 l0 55 -91 0 -91 0 26 31 c32 38 40 67 34
129 -6 56 -42 111 -88 135 -37 19 -107 27 -142 16z m139 -72 c96 -89 42 -229
-88 -229 -57 0 -103 30 -123 81 -26 66 -1 127 69 168 32 19 112 8 142 -20z
m-127 -461 l-1 -163 -39 -18 c-41 -19 -81 -74 -94 -130 -15 -66 41 -164 110
-189 33 -12 34 -14 34 -65 0 -29 -4 -53 -9 -53 -26 0 -98 71 -125 123 -38 75
-48 198 -21 279 21 64 64 129 99 147 26 14 26 16 26 123 0 65 4 108 10 108 6
0 10 -61 10 -162z m110 58 c0 -95 2 -105 20 -111 32 -10 98 -93 117 -148 24
-69 23 -186 -1 -256 -20 -58 -72 -123 -117 -147 -43 -22 -49 -18 -49 36 0 49
0 50 46 71 145 69 132 279 -21 329 l-35 12 0 159 c0 152 1 159 20 159 19 0 20
-7 20 -104z m31 -305 c34 -33 39 -45 39 -82 0 -56 -16 -87 -59 -116 -64 -43
-156 -20 -193 48 -49 92 15 189 126 189 43 0 53 -4 87 -39z"/>
<path d="M8824 8200 c-31 -17 -73 -56 -108 -100 -35 -43 -72 -78 -92 -86 -41
-17 -48 -54 -11 -54 34 0 91 44 142 110 25 33 55 64 65 70 17 9 21 4 36 -47
19 -66 21 -131 4 -162 -8 -17 -8 -31 0 -56 13 -38 4 -62 -36 -105 -12 -14 -30
-42 -38 -62 -15 -34 -15 -44 1 -114 16 -74 33 -98 55 -76 7 7 5 32 -6 81 -18
80 -16 89 39 154 37 43 49 85 35 123 -7 17 -6 32 1 46 18 33 13 121 -11 192
-12 37 -20 76 -17 87 8 30 -5 30 -59 -1z"/>
<path d="M8205 8013 c-64 -16 -86 -93 -40 -138 35 -36 88 -34 126 4 16 16 29
37 29 46 0 32 -30 73 -61 84 -18 6 -32 10 -33 10 -1 -1 -10 -3 -21 -6z"/>
<path d="M8198 7773 c-39 -3 -48 -8 -48 -22 0 -28 23 -32 121 -25 l89 7 0 -30
c0 -17 9 -42 20 -56 24 -30 25 -54 5 -77 -23 -25 -24 -73 -2 -78 10 -2 20 4
24 15 3 10 15 29 25 42 24 31 23 82 -2 114 -11 14 -20 36 -20 49 0 13 -7 34
-16 46 -13 19 -23 22 -82 20 -37 -1 -88 -3 -114 -5z"/>
<path d="M10694 8207 c3 -14 -3 -49 -15 -83 -23 -65 -25 -150 -10 -315 0 -9
19 -39 42 -65 40 -49 41 -50 34 -109 -12 -107 -11 -119 7 -123 13 -2 21 10 32
49 26 86 21 139 -16 189 -18 24 -39 51 -47 62 -11 15 -12 27 -4 53 8 26 8 44
-3 72 -18 52 -17 70 6 147 25 79 26 79 105 -17 61 -73 108 -109 140 -105 35 5
30 36 -8 52 -20 8 -57 41 -87 77 -61 75 -95 104 -146 125 l-36 15 6 -24z"/>
<path d="M11313 8005 c-59 -25 -69 -80 -24 -126 31 -31 67 -37 104 -17 67 35
62 114 -8 144 -40 16 -32 17 -72 -1z"/>
<path d="M11180 7761 c-5 -11 -10 -33 -10 -49 0 -16 -9 -37 -20 -47 -14 -12
-20 -31 -20 -57 0 -25 8 -50 20 -65 11 -14 20 -32 20 -39 0 -18 36 -18 43 0 3
8 -3 31 -14 52 -23 46 -24 67 -4 84 8 7 18 31 22 53 l6 40 87 -7 c96 -7 120
-2 120 24 0 14 -13 18 -77 24 -130 11 -161 8 -173 -13z"/>
<path d="M8290 5321 c67 -22 96 -36 232 -118 174 -104 247 -130 311 -112 69
19 100 99 57 150 l-19 24 9 -33 c10 -38 1 -69 -26 -93 -52 -46 -113 -30 -314
81 -141 78 -243 121 -284 119 -12 0 4 -8 34 -18z"/>
<path d="M9047 5295 c36 -25 48 -83 29 -130 l-16 -40 26 29 c22 25 25 36 21
70 -6 40 -43 86 -70 86 -6 0 -2 -7 10 -15z"/>
<path d="M9716 5124 c7 -41 -18 -100 -45 -109 -29 -9 -64 0 -186 46 -68 25
-119 39 -147 38 l-43 -1 51 -9 c27 -4 97 -29 155 -53 110 -48 160 -56 196 -31
33 23 46 80 28 119 l-15 31 6 -31z"/>
<path d="M11630 5110 c-9 -6 -10 -10 -3 -10 6 0 15 5 18 10 8 12 4 12 -15 0z"/>
<path d="M11088 5094 c8 -43 -22 -64 -92 -64 -34 0 -68 -5 -76 -11 -11 -8 6
-9 63 -6 56 3 83 9 97 22 20 18 27 69 11 79 -4 3 -6 -6 -3 -20z"/>
<path d="M10863 5013 c9 -2 23 -2 30 0 6 3 -1 5 -18 5 -16 0 -22 -2 -12 -5z"/>
<path d="M10448 5036 c6 -49 -29 -71 -101 -62 -28 3 -88 8 -132 10 -44 2 -64
2 -45 0 19 -3 77 -11 128 -20 77 -12 97 -13 120 -2 32 16 53 56 45 86 -9 34
-19 26 -15 -12z"/>
</g>
</svg>
